<svg xmlns="http://www.w3.org/2000/svg" width="15" height="16" viewBox="0 0 15 16">
    <path fill="#55B2F1" fill-rule="evenodd" d="M14.468 10.312c-.01-.957-.38-1.476-.807-2.153-.191-.283-.413-.473-.605-.755-.03-.154.033-.268-.012-.671-.042-.604-.263-.838-.31-.912.02-.16-.043-1.485-.523-2.268C10.751.941 7.982.846 7.643.844H7.64c-.339.002-3.107.097-4.568 2.71-.479.782-.543 2.106-.523 2.267-.046.074-.267.308-.31.912-.044.403.018.517-.012.67-.192.284-.413.473-.605.756-.426.677-.797 1.196-.806 2.153-.007.714.162 1.687.663 1.7.158-.012.292-.117.566-.424.082-.092.37-.48.429-.587.056.148.19 1.183 1.12 1.723-.956.45-1.424.735-1.44 1.319.02.338.423.787 1.165.996a6.05 6.05 0 0 0 2.927.05c.535-.13.696-.26 1.396-.644.7.385.86.514 1.395.643a6.052 6.052 0 0 0 2.927-.049c.742-.209 1.146-.658 1.166-.996-.016-.584-.484-.87-1.44-1.32.93-.538 1.063-1.574 1.12-1.722.058.107.346.495.428.587.274.307.409.412.567.424.5-.013.67-.986.663-1.7z"/>
</svg>
