<svg xmlns="http://www.w3.org/2000/svg" width="16" height="15" viewBox="0 0 16 15">
    <path fill="#8A93A0" fill-rule="evenodd" d="M2.874 6.044V15h-1.73C.513 15 0 14.382 0 13.624V7.529c0-.79.535-1.485 1.143-1.485h1.731zM7.607 1.25C7.72.507 8.344-.013 9.03 0c.98.019 1.563.833 1.766 1.235.37.735.38 1.946.126 2.724-.23.704-.761 1.629-.761 1.629h3.982c.42 0 .811.206 1.072.563a1.5 1.5 0 0 1 .232 1.272l-1.801 6.513c-.164.627-.707 1.064-1.32 1.064H4.5V5.898C6.299 5.51 7.404 2.59 7.607 1.249z"/>
</svg>
