<svg xmlns="http://www.w3.org/2000/svg" width="18" height="16" viewBox="0 0 18 16">
    <path fill="#44B035" fill-rule="nonzero" d="M8.387 6.97c1.939-1.828 5.126-1.942 7.27-.416.944.675 1.688 1.672 1.888 2.835a3.469 3.469 0 0 1-.107 1.664c-.199.615-.557 1.165-.985 1.644-.265.296-.56.566-.87.813-.05.04-.174.094-.154.16l.043.142.082.275.334 1.113-1.362-.75a185.84 185.84 0 0 0-.342-.187c-.028-.015-.113.024-.142.031-.076.02-.153.038-.23.057-.18.043-.36.085-.542.12a5.65 5.65 0 0 1-2.183-.016c-1.153-.23-2.228-.801-3.015-1.682-.834-.934-1.223-2.223-.996-3.46.166-.902.649-1.718 1.31-2.343m.179-1.947c.452 0 .78-.329.78-.783a.753.753 0 0 0-.78-.78c-.439 0-.936.294-.936.78 0 .486.497.783.936.783M4.205 3.46c-.439 0-.939.294-.939.78 0 .487.5.784.939.784.451 0 .777-.33.777-.783a.752.752 0 0 0-.777-.78m9.813 4.538c-.35 0-.679.379-.608.727.082.405.496.594.869.49.29-.08.568-.345.512-.671-.06-.357-.443-.546-.773-.546m-3.427 0c-.35 0-.684.376-.613.727.083.407.502.594.875.49.29-.08.566-.345.511-.671-.06-.359-.442-.546-.773-.546M5.384.848c2.456-.283 5.218.706 6.547 2.892.274.45.468.94.584 1.453a5.555 5.555 0 0 0-3.94 1.061 4.934 4.934 0 0 0-1.75 2.47 4.71 4.71 0 0 0-.015 2.696c-.75.059-1.474-.027-2.21-.177l-.512-.105c-.07-.014-.144.044-.208.076l-.305.153-1.273.641-.434.219.486-1.467.125-.378c.019-.058-.03-.067-.076-.1a8.363 8.363 0 0 1-.538-.423c-.382-.33-.73-.7-1.022-1.113a4.584 4.584 0 0 1-.746-3.582C.312 4.13.887 3.2 1.659 2.494c1.02-.938 2.358-1.49 3.725-1.647"/>
</svg>
