<svg xmlns="http://www.w3.org/2000/svg" width="18" height="15" viewBox="0 0 18 15">
    <g fill="none" fill-rule="nonzero">
        <path fill="#D52B2A" d="M13.522 7.408c-.236-.07-.398-.12-.274-.432.268-.678.295-1.263.005-1.68-.545-.784-2.035-.742-3.742-.022 0 0-.537.236-.4-.192.263-.85.224-1.562-.185-1.973-.927-.933-3.39.035-5.503 2.161C1.84 6.863.922 8.552.922 10.011c0 2.793 3.557 4.49 7.037 4.49 4.562 0 7.596-2.668 7.596-4.786 0-1.28-1.07-2.006-2.033-2.307zm-5.554 6.093c-2.777.275-5.174-.988-5.354-2.823-.18-1.835 1.925-3.547 4.702-3.823 2.777-.276 5.174.987 5.354 2.822.18 1.835-1.925 3.547-4.702 3.824z"/>
        <path fill="#E89213" d="M16.551 2.299A4.421 4.421 0 0 0 12.325.92a.646.646 0 0 0 .268 1.265 3.145 3.145 0 0 1 3.005.979c.782.873.995 2.065.66 3.109-.11.34.075.704.414.814.337.11.699-.076.808-.415V6.67a4.49 4.49 0 0 0-.929-4.371"/>
        <path fill="#E89213" d="M14.86 3.835a2.153 2.153 0 0 0-2.06-.67.556.556 0 0 0 .232 1.089c.357-.076.744.035 1.006.327.263.293.333.692.22 1.042h.001a.553.553 0 1 0 1.052.342 2.185 2.185 0 0 0-.451-2.13"/>
        <path fill="#040000" d="M8.246 8.267c-1.322-.346-2.815.317-3.39 1.49-.584 1.194-.019 2.521 1.316 2.955 1.383.45 3.013-.239 3.58-1.53.559-1.26-.139-2.559-1.506-2.915zm-1.01 3.053c-.268.431-.843.62-1.276.421-.427-.196-.553-.696-.285-1.117.266-.419.821-.606 1.251-.424.435.187.574.684.31 1.12zm.885-1.143c-.097.167-.311.247-.48.178-.165-.069-.217-.256-.123-.42.097-.163.303-.243.468-.177.168.061.228.25.135.419z"/>
    </g>
</svg>
