<?xml version="1.0" standalone="no"?><!DOCTYPE svg PUBLIC "-//W3C//DTD SVG 1.1//EN" "http://www.w3.org/Graphics/SVG/1.1/DTD/svg11.dtd"><svg t="1558867835296" class="icon" style="" viewBox="0 0 1024 1024" version="1.1" xmlns="http://www.w3.org/2000/svg" p-id="6636" xmlns:xlink="http://www.w3.org/1999/xlink" width="14" height="14"><defs><style type="text/css"></style></defs><path d="M512 1024c-8.533333 0-17.066667-4.266667-21.333333-8.533333-4.266667 0-128-76.8-448-76.8-25.6 0-42.666667-17.066667-42.666667-42.666667L0 42.666667c0-25.6 17.066667-42.666667 42.666667-42.666667 273.066667 0 418.133333 55.466667 469.333333 81.066667C563.2 55.466667 708.266667 0 981.333333 0c25.6 0 42.666667 17.066667 42.666667 42.666667l0 853.333333c0 25.6-17.066667 42.666667-42.666667 42.666667-320 0-443.733333 76.8-448 76.8C529.066667 1019.733333 520.533333 1024 512 1024zM85.333333 853.333333c247.466667 4.266667 375.466667 55.466667 426.666667 81.066667 51.2-25.6 179.2-72.533333 426.666667-81.066667L938.666667 85.333333c-290.133333 8.533333-401.066667 76.8-405.333333 76.8-12.8 8.533333-34.133333 8.533333-46.933333 0 0 0-115.2-72.533333-401.066667-76.8L85.333333 853.333333z" p-id="6637" fill="#8a8a8a"></path><path d="M512 1024c-25.6 0-42.666667-17.066667-42.666667-42.666667L469.333333 128c0-25.6 17.066667-42.666667 42.666667-42.666667s42.666667 17.066667 42.666667 42.666667l0 853.333333C554.666667 1006.933333 537.6 1024 512 1024z" p-id="6638" fill="#8a8a8a"></path><path d="M42.666667 938.666667c-25.6 0-42.666667-17.066667-42.666667-42.666667L0 213.333333c0-25.6 17.066667-42.666667 42.666667-42.666667s42.666667 17.066667 42.666667 42.666667l0 682.666667C85.333333 921.6 68.266667 938.666667 42.666667 938.666667z" p-id="6639" fill="#8a8a8a"></path><path d="M512 1024c-25.6 0-42.666667-17.066667-42.666667-42.666667L469.333333 298.666667c0-25.6 17.066667-42.666667 42.666667-42.666667s42.666667 17.066667 42.666667 42.666667l0 682.666667C554.666667 1006.933333 537.6 1024 512 1024z" p-id="6640" fill="#8a8a8a"></path><path d="M42.666667 938.666667c-25.6 0-42.666667-17.066667-42.666667-42.666667L0 341.333333c0-25.6 17.066667-42.666667 42.666667-42.666667s42.666667 17.066667 42.666667 42.666667l0 554.666667C85.333333 921.6 68.266667 938.666667 42.666667 938.666667z" p-id="6641" fill="#8a8a8a"></path><path d="M512 1024c-25.6 0-42.666667-17.066667-42.666667-42.666667L469.333333 426.666667c0-25.6 17.066667-42.666667 42.666667-42.666667s42.666667 17.066667 42.666667 42.666667l0 554.666667C554.666667 1006.933333 537.6 1024 512 1024z" p-id="6642" fill="#8a8a8a"></path><path d="M42.666667 938.666667c-25.6 0-42.666667-17.066667-42.666667-42.666667L0 469.333333c0-25.6 17.066667-42.666667 42.666667-42.666667s42.666667 17.066667 42.666667 42.666667l0 426.666667C85.333333 921.6 68.266667 938.666667 42.666667 938.666667z" p-id="6643" fill="#8a8a8a"></path><path d="M512 1024c-25.6 0-42.666667-17.066667-42.666667-42.666667L469.333333 554.666667c0-25.6 17.066667-42.666667 42.666667-42.666667s42.666667 17.066667 42.666667 42.666667l0 426.666667C554.666667 1006.933333 537.6 1024 512 1024z" p-id="6644" fill="#8a8a8a"></path><path d="M42.666667 938.666667c-25.6 0-42.666667-17.066667-42.666667-42.666667l0-298.666667c0-25.6 17.066667-42.666667 42.666667-42.666667s42.666667 17.066667 42.666667 42.666667l0 298.666667C85.333333 921.6 68.266667 938.666667 42.666667 938.666667z" p-id="6645" fill="#8a8a8a"></path><path d="M512 1024c-25.6 0-42.666667-17.066667-42.666667-42.666667l0-298.666667c0-25.6 17.066667-42.666667 42.666667-42.666667s42.666667 17.066667 42.666667 42.666667l0 298.666667C554.666667 1006.933333 537.6 1024 512 1024z" p-id="6646" fill="#8a8a8a"></path><path d="M42.666667 938.666667c-25.6 0-42.666667-17.066667-42.666667-42.666667l0-170.666667c0-25.6 17.066667-42.666667 42.666667-42.666667s42.666667 17.066667 42.666667 42.666667l0 170.666667C85.333333 921.6 68.266667 938.666667 42.666667 938.666667z" p-id="6647" fill="#8a8a8a"></path><path d="M512 1024c-25.6 0-42.666667-17.066667-42.666667-42.666667l0-170.666667c0-25.6 17.066667-42.666667 42.666667-42.666667s42.666667 17.066667 42.666667 42.666667l0 170.666667C554.666667 1006.933333 537.6 1024 512 1024z" p-id="6648" fill="#8a8a8a"></path></svg>