<?xml version="1.0" encoding="UTF-8"?>
<svg width="22px" height="22px" viewBox="0 0 22 22" version="1.1" xmlns="http://www.w3.org/2000/svg" xmlns:xlink="http://www.w3.org/1999/xlink">
    <!-- Generator: sketchtool 42 (36781) - http://www.bohemiancoding.com/sketch -->
    <title>485A0A2E-09FA-4F0C-AE26-A6416DF72317</title>
    <desc>Created with sketchtool.</desc>
    <defs>
        <rect id="path-1" x="238" y="128" width="700" height="50" rx="2"></rect>
        <filter x="-50%" y="-50%" width="200%" height="200%" filterUnits="objectBoundingBox" id="filter-2">
            <feOffset dx="0" dy="1" in="SourceAlpha" result="shadowOffsetOuter1"></feOffset>
            <feGaussianBlur stdDeviation="1" in="shadowOffsetOuter1" result="shadowBlurOuter1"></feGaussianBlur>
            <feColorMatrix values="0 0 0 0 0   0 0 0 0 0   0 0 0 0 0  0 0 0 0.0502717391 0" type="matrix" in="shadowBlurOuter1"></feColorMatrix>
        </filter>
    </defs>
    <g id="扶뒬못" stroke="none" stroke-width="1" fill="none" fill-rule="evenodd">
        <g id="扶뒬못2_Co_Editer" transform="translate(-305.000000, -142.000000)">
            <g id="Combined-Shape">
                <use fill="black" fill-opacity="1" filter="url(#filter-2)" xlink:href="#path-1"></use>
                <use fill="#FFFFFF" fill-rule="evenodd" xlink:href="#path-1"></use>
            </g>
            <g id="Group-30" transform="translate(305.000000, 142.000000)">
                <rect id="Rectangle-3" x="0" y="0" width="22" height="22"></rect>
                <path d="M10.587988,8.10743816 C10.3817072,8.3170651 10.0390968,8.3170651 9.82615868,8.10743816 C9.62138119,7.89515243 9.62138119,7.55006659 9.82615868,7.33730466 L12.0963014,5.02541606 C12.7754505,4.34403423 13.6659368,4 14.5498048,4 C16.462031,4 18,5.57239061 18,7.51947078 C18,8.41776144 17.6650427,9.32381018 16.9946204,10.0052118 L14.5201883,12.5210527 C13.8492584,13.186839 12.9725359,13.52 12.0963014,13.52 C10.8703501,13.52 9.75007727,12.8583804 9.13273824,11.8095711 L9.13273824,11.8049083 C8.98059495,11.5532369 8.86620927,11.282339 8.7819477,11.0119569 C8.69872085,10.7249674 8.85955191,10.4188109 9.13988369,10.3337101 C9.43091411,10.2491053 9.72760622,10.4110131 9.80981787,10.7016336 C9.86444342,10.8915777 9.94716268,11.0778709 10.0462423,11.2517035 C10.4736023,11.9797925 11.2584297,12.4369638 12.0963014,12.4369638 C12.7065145,12.4369638 13.3080008,12.2039634 13.7716542,11.7467921 L16.2414203,9.23507836 C16.7056009,8.76181551 16.9348408,8.13856969 16.9348408,7.51947078 C16.9348408,6.17228281 15.8743085,5.0954769 14.5497853,5.0954769 C13.9396112,5.0954769 13.3238145,5.32849714 12.8653152,5.80021234 L12.8581502,5.80021234 L10.587988,8.10743816 L10.587988,8.10743816 Z M11.4186504,14.0125913 L11.4186504,14.0125913 L9.1471176,16.2568858 C8.22544347,17.1675724 6.68449481,17.1711374 5.76332859,16.2604122 L5.76332859,16.2568858 C4.84011121,15.3471627 4.84011121,13.8316835 5.76332859,12.9229624 L8.20909279,10.5007855 C8.67554613,10.0501923 9.28454532,9.81989511 9.90225706,9.81989511 C10.5199688,9.81989511 11.128968,10.0502116 11.594933,10.5007855 L11.594933,10.5078191 C11.73953,10.6469108 11.8540042,10.8021509 11.953085,10.96745 C12.0588272,11.1327683 12.1349936,11.3131945 12.1896522,11.4931388 C12.2729097,11.7788955 12.5707772,11.9371609 12.8512978,11.8544729 C13.1338305,11.7718426 13.3019279,11.4785321 13.2186313,11.1962827 C13.1338109,10.9256531 13.0188873,10.6661039 12.8834912,10.4256899 C12.7296933,10.1847748 12.5554619,9.95898683 12.3572222,9.7558605 C11.6777217,9.09364285 10.793828,8.76 9.90225706,8.76 C9.01121359,8.76 8.12683151,9.09364285 7.44731148,9.7558605 L5.00051193,12.1740485 C3.66649602,13.4935121 3.66649602,15.6858736 5.00051193,17.0123901 L5.03782351,17.0395995 C6.37896964,18.3288283 8.56111093,18.3177287 9.8951073,17.0204643 L9.8951073,17.0123901 L9.90223753,17.0053372 L12.1809592,14.7645692 C12.3873449,14.5544286 12.3873449,14.2232908 12.1738094,14.0126299 C11.9673846,13.8090218 11.6250752,13.8090218 11.4186504,14.0126299 L11.4186504,14.0125913 L11.4186504,14.0125913 Z" id="iconfont-link" fill="#6a6a6a"></path>
            </g>
        </g>
    </g>
</svg>