<?xml version="1.0" encoding="UTF-8"?>
<svg width="22px" height="22px" viewBox="0 0 22 22" version="1.1" xmlns="http://www.w3.org/2000/svg" xmlns:xlink="http://www.w3.org/1999/xlink">
    <!-- Generator: sketchtool 42 (36781) - http://www.bohemiancoding.com/sketch -->
    <title>BE990344-56F4-4832-8198-E528CAB6DC03</title>
    <desc>Created with sketchtool.</desc>
    <defs>
        <rect id="path-1" x="238" y="128" width="700" height="50" rx="2"></rect>
        <filter x="-50%" y="-50%" width="200%" height="200%" filterUnits="objectBoundingBox" id="filter-2">
            <feOffset dx="0" dy="1" in="SourceAlpha" result="shadowOffsetOuter1"></feOffset>
            <feGaussianBlur stdDeviation="1" in="shadowOffsetOuter1" result="shadowBlurOuter1"></feGaussianBlur>
            <feColorMatrix values="0 0 0 0 0   0 0 0 0 0   0 0 0 0 0  0 0 0 0.0502717391 0" type="matrix" in="shadowBlurOuter1"></feColorMatrix>
        </filter>
    </defs>
    <g id="扶뒬못" stroke="none" stroke-width="1" fill="none" fill-rule="evenodd">
        <g id="扶뒬못2" transform="translate(-305.000000, -142.000000)">
            <g id="Combined-Shape">
                <use fill="black" fill-opacity="1" filter="url(#filter-2)" xlink:href="#path-1"></use>
                <use fill="#FFFFFF" fill-rule="evenodd" xlink:href="#path-1"></use>
            </g>
            <g id="Group-30" transform="translate(305.000000, 142.000000)">
                <rect id="Rectangle-3" x="0" y="0" width="22" height="22"></rect>
                <path d="M15.2985832,17.9967638 L5.61410136,17.9967638 C4.72418852,17.9967638 4,17.2743442 4,16.3865536 L4,5.65217633 C4,4.76449072 4.72418852,4.0420712 5.61410136,4.0420712 L13.146441,4.0420712 C13.4439278,4.0420712 13.6845029,4.28251362 13.6845029,4.5787449 C13.6845029,4.87501819 13.4439278,5.11546061 13.146441,5.11546061 L5.61410136,5.11546061 C5.31764622,5.11546061 5.0760395,5.35640715 5.0760395,5.65215532 L5.0760395,16.3865536 C5.0760395,16.6828689 5.31764622,16.9233113 5.61410136,16.9233113 L15.2986042,16.9233113 C15.5955226,16.9233113 15.8365819,16.6828899 15.8365819,16.3865536 L15.8365819,7.79910219 C15.8365819,7.5028079 16.0771358,7.26236548 16.3746227,7.26236548 C16.6721516,7.26236548 16.9126214,7.50278689 16.9126214,7.79910219 L16.9126214,16.3865746 C16.9126003,17.2743652 16.1884118,17.9967638 15.2985832,17.9967638 M12.1053717,9.43365696 C11.9674063,9.43365696 11.8294831,9.38076229 11.7244169,9.27566893 C11.5136518,9.06499714 11.5136518,8.7244297 11.7244169,8.51373682 L17.0799059,3.15806712 C17.29065,2.94731096 17.6312612,2.94731096 17.841942,3.15806712 C18.052686,3.36871782 18.052686,3.70932744 17.841942,3.92010468 L12.4864319,9.27566893 C12.3813234,9.38135282 12.2433581,9.43365696 12.1053717,9.43365696 M9.89566265,9.38834951 L6.66750731,9.38834951 C6.37050717,9.38834951 6.12944984,9.14477602 6.12944984,8.84464956 C6.12944984,8.54454437 6.37050717,8.30097087 6.66750731,8.30097087 L9.89568371,8.30097087 C10.1926207,8.30097087 10.433657,8.54454437 10.433657,8.84464956 C10.4336359,9.14477602 10.1925996,9.38834951 9.89566265,9.38834951 M13.1132371,12.6504854 L6.6666982,12.6504854 C6.37014467,12.6504854 6.12944984,12.4074769 6.12944984,12.106828 C6.12944984,11.8060941 6.37014467,11.5631068 6.6666982,11.5631068 L13.1132371,11.5631068 C13.4102741,11.5631068 13.6504854,11.8060941 13.6504854,12.106828 C13.6504854,12.4074556 13.4102741,12.6504854 13.1132371,12.6504854" id="iconfont-bianji" fill="#6a6a6a"></path>
            </g>
        </g>
    </g>
</svg>