<?xml version="1.0" encoding="UTF-8" standalone="no"?>
<svg width="36px" height="36px" viewBox="0 0 36 36" version="1.1" xmlns="http://www.w3.org/2000/svg" xmlns:xlink="http://www.w3.org/1999/xlink" xmlns:sketch="http://www.bohemiancoding.com/sketch/ns">
    <!-- Generator: Sketch 3.3.3 (12081) - http://www.bohemiancoding.com/sketch -->
    <title>default_gravatar</title>
    <desc>Created with Sketch.</desc>
    <defs></defs>
    <g id="Page-1" stroke="none" stroke-width="1" fill="none" fill-rule="evenodd" sketch:type="MSPage">
        <g id="default_gravatar" sketch:type="MSArtboardGroup">
            <g id="Rectangle-210-+-Imported-Layers-Copy-Copy" sketch:type="MSLayerGroup">
                <rect id="Rectangle-210" fill="#D8D8D8" sketch:type="MSShapeGroup" x="0" y="0" width="36" height="36"></rect>
                <path d="M27.8690321,26.8536568 L8,26.8536568 C8,25.8494514 8.471825,24.1109466 11.5189045,22.3883176 C12.157896,22.0271213 15.3439512,20.0961098 15.6159677,19.6371721 C15.9245828,19.1172081 16.0106389,18.4761837 15.4201158,17.5325085 C15.3726366,17.4561016 14.4349215,16.0083391 14.1451003,15.0304297 C13.940346,14.338302 13.9175955,13.5454561 13.9175955,12.7134144 C13.9175955,9.83624702 15.7223014,8 17.9483856,8 C20.1744699,8 21.9791758,9.83624702 21.9791758,12.7134144 C21.9791758,13.3990922 21.9663168,14.0559933 21.8471241,14.6538527 C21.639897,15.6903077 20.7758736,17.0055984 20.5884295,17.3305759 C20.5439177,17.407479 20.5078137,17.467513 20.4850633,17.5012511 C20.0790168,18.1070489 19.9627916,18.5535829 20.0008739,18.9152755 C20.0443965,19.3285675 20.3139401,19.6163338 20.667067,19.8544853 C21.0345366,20.1020636 24.011881,22.14967 24.3778668,22.3883176 C26.8715163,24.0166783 27.8690321,25.6063385 27.8690321,26.8536568 L27.8690321,26.8536568 Z" id="Imported-Layers-Copy" fill="#FFFFFF" sketch:type="MSShapeGroup"></path>
            </g>
        </g>
    </g>
</svg>