<?xml version="1.0" encoding="UTF-8" standalone="no"?>
<svg width="19px" height="14px" viewBox="0 0 19 14" version="1.1" xmlns="http://www.w3.org/2000/svg" xmlns:xlink="http://www.w3.org/1999/xlink">
    <!-- Generator: sketchtool 40.1 (33804) - http://www.bohemiancoding.com/sketch -->
    <title>A8C93363-14D4-4BF1-BEFE-FDE6F9B25BB7</title>
    <desc>Created with sketchtool.</desc>
    <defs></defs>
    <g id="流程" stroke="none" stroke-width="1" fill="none" fill-rule="evenodd">
        <g id="Markdown－草稿" transform="translate(-446.000000, -198.000000)" fill="#B3BAC2">
            <path d="M462.807692,204.971429 L460.980769,204.971429 L460.980769,201.799107 L459.153846,201.799107 L459.153846,204.971429 L457.326923,204.971429 L460.067308,208.237054 L462.807692,204.971429 Z M450.567308,208.14375 L450.567308,204.504911 L452.394231,206.8375 L454.221154,204.504911 L454.221154,208.14375 L456.048077,208.14375 L456.048077,201.799107 L454.221154,201.799107 L452.394231,204.131696 L450.567308,201.799107 L448.740385,201.799107 L448.740385,208.14375 L450.567308,208.14375 Z M447.370192,211.942857 C446.614668,211.942857 446,211.209877 446,210.308929 L446,203.253589 L446,199.633929 C446,198.73298 446.614668,198 447.370192,198 L463.629808,198 C464.385332,198 465,198.73298 465,199.633929 L465,210.308929 C465,211.209877 464.385332,211.942857 463.629808,211.942857 L447.370192,211.942857 Z" id="md"></path>
        </g>
    </g>
</svg>