<?xml version="1.0" encoding="UTF-8" standalone="no"?>
<svg width="21px" height="14px" viewBox="0 0 21 14" version="1.1" xmlns="http://www.w3.org/2000/svg" xmlns:xlink="http://www.w3.org/1999/xlink">
    <!-- Generator: sketchtool 39.1 (31720) - http://www.bohemiancoding.com/sketch -->
    <title>B2BACC56-E6C9-4E09-BDCA-25966E6FFE28</title>
    <desc>Created with sketchtool.</desc>
    <defs></defs>
    <g id="Page-1" stroke="none" stroke-width="1" fill="none" fill-rule="evenodd">
        <g id="Markdown－全屏模式、白色风格" transform="translate(-1407.000000, -873.000000)" fill="#B3BAC1">
            <path d="M1423,875.275927 C1423,874.99653 1423.16165,874.932738 1423.35812,875.1305 L1427.85215,879.653938 C1428.04994,879.853019 1428.04863,880.177109 1427.85215,880.374872 L1423.35812,884.89831 C1423.16034,885.09739 1423,885.039704 1423,884.752883 L1423,875.275927 L1423,875.275927 Z M1416,878.490479 C1416,878.219595 1416.2329,878 1416.50342,878 L1423,878 L1423,882 L1416.50342,882 C1416.22539,882 1416,881.784943 1416,881.509521 L1416,878.490479 Z M1407,874.006845 C1407,873.45078 1407.43788,873 1408.00293,873 L1412.99707,873 C1413.55097,873 1414,873.449949 1414,874.006845 L1414,885.993155 C1414,886.54922 1413.56212,887 1412.99707,887 L1408.00293,887 C1407.44903,887 1407,886.550051 1407,885.993155 L1407,874.006845 Z M1409,875 L1412,875 L1412,885 L1409,885 L1409,875 Z" id="Combined-Shape" transform="translate(1417.500000, 880.000000) scale(-1, 1) translate(-1417.500000, -880.000000) "></path>
        </g>
    </g>
</svg>