<?xml version="1.0" encoding="UTF-8" standalone="no"?>
<svg width="16px" height="14px" viewBox="0 0 16 14" version="1.1" xmlns="http://www.w3.org/2000/svg" xmlns:xlink="http://www.w3.org/1999/xlink">
    <!-- Generator: sketchtool 39.1 (31720) - http://www.bohemiancoding.com/sketch -->
    <title>315800D9-DDC9-4BB1-853F-2EE1AE62EF06</title>
    <desc>Created with sketchtool.</desc>
    <defs></defs>
    <g id="Page-1" stroke="none" stroke-width="1" fill="none" fill-rule="evenodd">
        <g id="Markdown－网络不好、图片描述" transform="translate(-690.000000, -873.000000)" fill="#B3BAC1">
            <path d="M697,875.275927 C697,874.99653 697.161647,874.932738 697.358123,875.1305 L701.852151,879.653938 C702.049937,879.853019 702.048628,880.177109 701.852151,880.374872 L697.358123,884.89831 C697.160337,885.09739 697,885.039704 697,884.752883 L697,875.275927 Z M704,874.006845 C704,873.45078 704.443865,873 705,873 C705.552285,873 706,873.449949 706,874.006845 L706,885.993155 C706,886.54922 705.556135,887 705,887 C704.447715,887 704,886.550051 704,885.993155 L704,874.006845 Z M690,878.490479 C690,878.219595 690.232903,878 690.503423,878 L697,878 L697,882 L690.503423,882 C690.22539,882 690,881.784943 690,881.509521 L690,878.490479 Z" id="Combined-Shape"></path>
        </g>
    </g>
</svg>