<?xml version="1.0" encoding="UTF-8" standalone="no"?>
<svg width="19px" height="14px" viewBox="0 0 19 14" version="1.1" xmlns="http://www.w3.org/2000/svg" xmlns:xlink="http://www.w3.org/1999/xlink">
    <!-- Generator: sketchtool 39.1 (31720) - http://www.bohemiancoding.com/sketch -->
    <title>776CE10B-C934-4A27-A5D6-B8725E0A3667</title>
    <desc>Created with sketchtool.</desc>
    <defs></defs>
    <g id="Page-1" stroke="none" stroke-width="1" fill="none" fill-rule="evenodd">
        <g id="Markdown－全屏模式、白色风格" transform="translate(-52.000000, -873.000000)" fill="#B3BAC1">
            <path d="M52,874.498245 C52,873.670787 52.6762201,873 53.4908981,873 L69.5091019,873 C70.3325022,873 71,873.675249 71,874.498245 L71,885.501755 C71,886.329213 70.3237799,887 69.5091019,887 L53.4908981,887 C52.6674978,887 52,886.324751 52,885.501755 L52,874.498245 Z M69.0103493,884.000193 C69.0103493,884.552371 68.5611193,885 68.0021702,885 L54,885 L59,880 L61,882 L66,877 L69.0103493,880 L69.0103493,884.000193 Z M56.5,878 C57.3284271,878 58,877.328427 58,876.5 C58,875.671573 57.3284271,875 56.5,875 C55.6715729,875 55,875.671573 55,876.5 C55,877.328427 55.6715729,878 56.5,878 Z" id="Combined-Shape"></path>
        </g>
    </g>
</svg>