<svg xmlns="http://www.w3.org/2000/svg" width="62" height="56" viewBox="0 0 62 56">
    <path fill="#CDD3D9" fill-rule="evenodd" d="M13.987 26.598c0-.675.547-1.224 1.224-1.224h8.591a1.224 1.224 0 1 1 0 2.448h-8.59a1.22 1.22 0 0 1-1.225-1.216v-.008zm1.218-7.343h19.642c.672 0 1.218.543 1.218 1.224 0 .675-.546 1.224-1.218 1.224H15.205a1.218 1.218 0 0 1-1.218-1.218c0-.682.546-1.23 1.218-1.23zm-1.218-4.896c0-.676.548-1.223 1.225-1.224h13.494a1.225 1.225 0 1 1 0 2.448H15.213a1.222 1.222 0 0 1-1.226-1.217v-.007zm12.923 20.15a6.143 6.143 0 0 0-8.674 0 6.111 6.111 0 0 0 0 8.656 6.143 6.143 0 0 0 8.674 0 6.111 6.111 0 0 0 0-8.655zm18.968 9.224h3.69a2.452 2.452 0 0 0 2.443-2.448V5.791a2.443 2.443 0 0 0-2.442-2.447H20.108a2.452 2.452 0 0 0-2.441 2.447v1.224h23.3a4.895 4.895 0 0 1 4.911 4.879v31.839zm-8.797 6.12h3.9c1.35 0 2.444-1.09 2.444-2.454V11.848a2.372 2.372 0 0 0-2.368-2.385h-29.61a2.376 2.376 0 0 0-2.367 2.385v35.55a2.455 2.455 0 0 0 2.443 2.455h18.62l-.631-.63a2.44 2.44 0 0 1-.638-2.367L27.716 45.7c-3.805 2.826-9.185 2.04-12.018-1.757a8.556 8.556 0 0 1 .803-11.164c3.347-3.352 8.784-3.361 12.143-.022a8.553 8.553 0 0 1 .806 11.212l1.16 1.157a2.449 2.449 0 0 1 2.37.635l4.101 4.092zM32.597 52.3H1.717a1.22 1.22 0 0 1-1.223-1.217c0-.682.556-1.23 1.223-1.23H7.28a4.857 4.857 0 0 1-.653-2.442V11.905a4.897 4.897 0 0 1 4.905-4.89h3.681v-1.23a4.897 4.897 0 0 1 4.905-4.89h29.435a4.895 4.895 0 0 1 4.911 4.88V41.29c0 .89-.238 1.724-.653 2.442h6.785a1.223 1.223 0 1 1 .001 2.448H45.878v1.23c0 .89-.238 1.723-.654 2.442h.658c.674 0 1.223.543 1.223 1.224 0 .675-.556 1.223-1.223 1.223h-6.453c.56.938.439 2.167-.377 2.98a2.451 2.451 0 0 1-3.46.009L32.597 52.3z"/>
</svg>
