<svg xmlns="http://www.w3.org/2000/svg" width="13" height="13" viewBox="0 0 13 13">
    <path fill="#73777A" fill-rule="evenodd" d="M5.314 9.75C2.862 9.75.818 7.719.818 5.281.818 2.844 2.862.812 5.314.812c2.453 0 4.497 2.032 4.497 4.47 0 2.437-2.044 4.468-4.497 4.468zm4.252-1.381c.654-.894 1.063-1.95 1.063-3.088C10.629 2.356 8.258 0 5.314 0 2.371 0 0 2.356 0 5.281s2.371 5.281 5.314 5.281c1.145 0 2.208-.406 3.107-.975l3.189 3.17a.794.794 0 0 0 1.145 0 .782.782 0 0 0 0-1.138l-3.189-3.25z"></path>
</svg>