<svg xmlns="http://www.w3.org/2000/svg" width="12" height="12" viewBox="0 0 12 12">
    <path fill="#73777A" fill-rule="evenodd" d="M.563 4.5h2.25c.309 0 .562-.253.562-.563a.564.564 0 0 0-.563-.562h-.918A4.87 4.87 0 0 1 6 1.125 4.877 4.877 0 0 1 10.875 6 4.877 4.877 0 0 1 6 10.875a4.87 4.87 0 0 1-4.866-4.688h-.009a.564.564 0 0 0-.563-.562.564.564 0 0 0-.553.666A5.998 5.998 0 0 0 12 6c0-3.31-2.69-6-6-6a5.984 5.984 0 0 0-4.875 2.503v-.816a.564.564 0 0 0-.563-.562.564.564 0 0 0-.562.563v2.25c0 .309.253.562.563.562"></path>
</svg>