<svg xmlns="http://www.w3.org/2000/svg" width="12" height="12" viewBox="0 0 12 12">
    <path fill="#73777A" fill-rule="evenodd" d="M11.438 4.5h-2.25a.564.564 0 0 1-.563-.563c0-.309.253-.562.563-.562h.918A4.87 4.87 0 0 0 6 1.125 4.877 4.877 0 0 0 1.125 6 4.877 4.877 0 0 0 6 10.875a4.87 4.87 0 0 0 4.866-4.688h.009c0-.309.253-.562.563-.562.309 0 .562.253.562.563 0 .037 0 .075-.01.103A5.998 5.998 0 0 1 0 6c0-3.31 2.69-6 6-6 2.006 0 3.787.984 4.875 2.503v-.816c0-.309.253-.562.563-.562.309 0 .562.253.562.563v2.25c0 .309-.253.562-.563.562"></path>
</svg>