<?xml version="1.0" encoding="UTF-8" standalone="no"?>
<svg width="16px" height="16px" viewBox="0 0 16 16" version="1.1" xmlns="http://www.w3.org/2000/svg" xmlns:xlink="http://www.w3.org/1999/xlink" xmlns:sketch="http://www.bohemiancoding.com/sketch/ns">
    <!-- Generator: Sketch 3.3.2 (12043) - http://www.bohemiancoding.com/sketch -->
    <title>Artboard 1</title>
    <desc>Created with Sketch.</desc>
    <defs></defs>
    <g id="Page-1" stroke="none" stroke-width="1" fill="none" fill-rule="evenodd" sketch:type="MSPage">
        <g id="Artboard-1" sketch:type="MSArtboardGroup">
            <g id="Imported-Layers" sketch:type="MSLayerGroup" transform="translate(1.000000, 2.000000)">
                <path d="M10.5183887,5.50706341 C10.3215549,5.44759875 10.186558,5.40721933 10.2897806,5.1468737 C10.5129467,4.58160603 10.5361191,4.09391632 10.2939937,3.74609667 C9.84020063,3.09339917 8.59867712,3.1287422 7.17559248,3.72851351 C7.17559248,3.7277183 6.72873354,3.92533004 6.84288401,3.56845374 C7.06188088,2.86013514 7.02892163,2.26663721 6.68822571,1.9241632 C5.91603135,1.14639553 3.86290282,1.95349792 2.10228213,3.72533264 C0.783736677,5.05290541 0.0181253918,6.45969075 0.0181253918,7.67619802 C0.0181253918,10.0030951 2.9823511,11.4177885 5.88223824,11.4177885 C9.68387461,11.4177885 12.212652,9.19435811 12.212652,7.42910603 C12.212652,6.36258576 11.3202508,5.7572921 10.5183887,5.50706341 L10.5183887,5.50706341 Z M5.89005016,10.5837812 C3.57601254,10.8136876 1.57853292,9.76073025 1.42821944,8.2312604 C1.27790596,6.70223233 3.03255799,5.27609667 5.3462884,5.04574844 C7.66054545,4.81544439 9.65815674,5.86840177 9.80816301,7.39716476 C9.95821317,8.92703222 8.2043511,10.3533446 5.89005016,10.5837812 L5.89005016,10.5837812 Z" id="Fill-1" fill="#D52B2A" sketch:type="MSShapeGroup"></path>
                <path d="M13.0429091,1.2487578 C12.1248339,0.224163202 10.7706959,-0.166465696 9.52083386,0.101081081 L9.52030721,0.101081081 C9.23104702,0.163373181 9.04667712,0.449828482 9.10860188,0.740392412 C9.17026332,1.03126559 9.45469592,1.21712578 9.74395611,1.15505457 C10.6331097,0.964953222 11.5954232,1.24297037 12.2480251,1.97081601 C12.9000564,2.69861746 13.0771411,3.69131497 12.7978871,4.56154886 L12.7980188,4.56172557 C12.7070408,4.84517672 12.8610846,5.14846414 13.1430157,5.24004678 C13.4238056,5.33162942 13.7257053,5.17673857 13.816815,4.8939501 C13.816815,4.89341996 13.816815,4.89235967 13.8169906,4.8918737 C14.2087712,3.66776767 13.9612476,2.27238046 13.0429091,1.2487578" id="Fill-2" fill="#E89213" sketch:type="MSShapeGroup"></path>
                <path d="M11.6330784,2.52950104 C11.1862633,2.03045738 10.5264639,1.84093035 9.91744201,1.97130198 C9.66851411,2.02471414 9.50986207,2.27132017 9.56322884,2.52212318 C9.61646395,2.7718659 9.86126646,2.93232328 10.1096238,2.87793919 L10.1096238,2.87842516 C10.4073103,2.81507277 10.7301442,2.9074948 10.9485705,3.15096414 C11.1672602,3.39496362 11.2260251,3.72740904 11.1321944,4.01912162 L11.1326771,4.01912162 C11.0546458,4.26259096 11.1870533,4.52439449 11.4291348,4.60329782 C11.6713041,4.68131757 11.9310282,4.54842775 12.0091912,4.30433992 C12.2005831,3.70810291 12.080815,3.02841216 11.6330784,2.52950104" id="Fill-3" fill="#E89213" sketch:type="MSShapeGroup"></path>
                <path d="M6.12129154,6.22275988 C5.02011912,5.93436071 3.77552351,6.48677235 3.29724138,7.46347713 C2.81013793,8.4595764 3.2811348,9.56537162 4.39367398,9.92679834 C5.5460627,10.3009044 6.90436991,9.72764033 7.37659561,8.65241684 C7.84236991,7.60140333 7.26082132,6.51919958 6.12129154,6.22275988 L6.12129154,6.22275988 Z M5.28045768,8.76661902 C5.05658934,9.12605769 4.57729781,9.28359927 4.21632602,9.11766372 C3.86053292,8.95455561 3.75551097,8.53711019 3.97933542,8.18659563 C4.20043887,7.83753898 4.66366771,7.6820738 5.02196238,7.83329782 C5.38451411,7.98880717 5.50024451,8.40360187 5.28045768,8.76661902 L5.28045768,8.76661902 Z M6.01780564,7.81399168 C5.93683386,7.95319906 5.75794984,8.02026247 5.61777429,7.96221154 C5.47996865,7.90513254 5.43673981,7.74926975 5.51507837,7.61244802 C5.59569906,7.47628898 5.76760502,7.4097999 5.90510345,7.46471414 C6.04479624,7.51613825 6.09500313,7.67367983 6.01780564,7.81399168 L6.01780564,7.81399168 Z" id="Fill-4" fill="#040000" sketch:type="MSShapeGroup"></path>
            </g>
        </g>
    </g>
</svg>