<?xml version="1.0" encoding="UTF-8" standalone="no"?>
<svg width="26px" height="20px" viewBox="0 0 26 20" version="1.1" xmlns="http://www.w3.org/2000/svg" xmlns:xlink="http://www.w3.org/1999/xlink" xmlns:sketch="http://www.bohemiancoding.com/sketch/ns">
    <!-- Generator: Sketch 3.3.3 (12081) - http://www.bohemiancoding.com/sketch -->
    <title>weixin_icon</title>
    <desc>Created with Sketch.</desc>
    <defs></defs>
    <g id="Page-1" stroke="none" stroke-width="1" fill="none" fill-rule="evenodd" sketch:type="MSPage">
        <g id="download_page" sketch:type="MSArtboardGroup" transform="translate(-719.000000, -528.000000)" fill="#00C80C">
            <g id="weixin_icon" sketch:type="MSLayerGroup" transform="translate(719.000000, 528.000000)">
                <path d="M8.33752082,0.346370449 C8.70321333,0.30532333 9.07636895,0.282933993 9.45449998,0.281690141 L9.54032577,0.281690141 C9.91970066,0.282933993 10.2928563,0.30532333 10.6610365,0.346370449 C10.8102987,0.363784378 10.9570733,0.383686011 11.1038478,0.4073192 C11.2195261,0.425976981 11.3352043,0.445878614 11.4496387,0.468267952 C11.5466592,0.486925733 11.6424358,0.506827366 11.7394562,0.529216703 C11.8240382,0.547874484 11.909864,0.567776117 11.9944459,0.588921603 C12.0703209,0.608823236 12.1474397,0.628724869 12.2220708,0.651114206 C12.2929704,0.669771987 12.3626261,0.690917472 12.4322818,0.710819106 C12.498206,0.730720739 12.5628863,0.750622372 12.6275666,0.771767857 C12.6885154,0.79166949 12.7482203,0.811571123 12.809169,0.832716609 C12.8663862,0.852618242 12.9223596,0.872519875 12.9795768,0.89366536 C13.0330624,0.913566993 13.0877919,0.933468626 13.1400337,0.95337026 C13.1922755,0.973271893 13.2432734,0.994417378 13.2942713,1.01431901 C13.3427816,1.03422064 13.3912918,1.05536613 13.439802,1.07526776 C13.4870684,1.0951694 13.5330909,1.11507103 13.5803573,1.13621651 C13.625136,1.15611815 13.6699147,1.17601978 13.7146933,1.19716527 C13.7569843,1.2170669 13.8005191,1.23696853 13.8428101,1.25811402 C13.8838572,1.27801565 13.9249043,1.29791728 13.9659514,1.31781892 C14.0069986,1.33772055 14.0468018,1.35886603 14.0853612,1.37876767 C14.1251645,1.3986693 14.1637239,1.41981479 14.2022833,1.43971642 C14.2395989,1.45961805 14.2769145,1.48076354 14.3129862,1.50066517 C14.3490579,1.5205668 14.3851296,1.54046844 14.4212013,1.56161392 C14.4560292,1.58151556 14.4921009,1.60141719 14.5269287,1.62256267 C14.5605127,1.64246431 14.5940967,1.66236594 14.6276807,1.68226757 C14.6612648,1.70216921 14.6936049,1.72331469 14.7259451,1.74321633 C14.7582852,1.76311796 14.7906254,1.78301959 14.8229655,1.80416508 C14.8540618,1.82406671 14.8851581,1.84521219 14.9162544,1.86511383 C14.9461069,1.88501546 14.9772032,1.90491709 15.0070556,1.92606258 C15.0369081,1.94596421 15.0667605,1.96586585 15.0953691,1.98701133 C15.1252216,2.00691296 15.1525863,2.0268146 15.1811949,2.04671623 C15.2098035,2.06661786 15.2384121,2.08776335 15.2657769,2.10766498 C15.2931416,2.12756662 15.3205064,2.14746825 15.3478711,2.16861373 C15.373992,2.18851537 15.4013567,2.208417 15.4274776,2.22956249 C15.4535985,2.24946412 15.4797194,2.26936575 15.5058403,2.29051124 C15.5319612,2.30916902 15.5568382,2.3303145 15.5817153,2.35021614 C15.6065923,2.37136162 15.6327132,2.39126325 15.6575903,2.41116489 C15.6812235,2.43106652 15.7048566,2.45221201 15.7297337,2.47211364 C15.7533669,2.49201527 15.7770001,2.51191691 15.8006332,2.53306239 C15.8242664,2.55296402 15.8466558,2.57286566 15.870289,2.59401114 C15.8926783,2.61391278 15.9150676,2.63381441 15.937457,2.65371604 C15.9610902,2.67361767 15.9822357,2.69476316 16.004625,2.71466479 C16.0257705,2.73456643 16.0481598,2.75571191 16.0693053,2.77561354 C16.0904508,2.79551518 16.1115963,2.81666066 16.1327418,2.8365623 C16.1538872,2.85646393 16.1750327,2.87636556 16.1949344,2.89751105 C16.2160798,2.91741268 16.2359815,2.93731431 16.2558831,2.9584598 C16.2757847,2.97711758 16.2956864,2.99826307 16.315588,3.0181647 C16.3354896,3.03806633 16.3541474,3.05921182 16.3740491,3.07911345 C16.3927068,3.09901508 16.4126085,3.12016057 16.4312663,3.1400622 C16.449924,3.15996383 16.4685818,3.18110932 16.4872396,3.20101095 C16.5046535,3.22091259 16.5233113,3.24081422 16.5419691,3.2619597 C16.559383,3.28186134 16.5767969,3.30176297 16.5942109,3.3216646 C16.6128687,3.34156624 16.6302826,3.36271172 16.6476965,3.38261336 C16.6638666,3.40251499 16.6812805,3.42366047 16.6986944,3.44356211 C16.7148645,3.46346374 16.7322785,3.48336537 16.7484485,3.50451086 C16.7646186,3.52441249 16.7807887,3.54555798 16.7969588,3.56545961 C16.8131288,3.58536124 16.8305428,3.60526288 16.845469,3.62516451 C16.8616391,3.64630999 16.8765653,3.66621163 16.8927354,3.68611326 C16.9076616,3.70601489 16.9238317,3.72716038 16.9387579,3.74706201 C16.9536841,3.76696365 16.9686103,3.78810913 16.9835366,3.80801076 C16.9984628,3.8279124 17.013389,3.84781403 17.0270714,3.86895952 C17.0419976,3.88886115 17.05568,3.90876278 17.0706062,3.92866441 C17.0842886,3.94856605 17.097971,3.96971153 17.1128972,3.98961317 C17.1265796,4.01075865 17.1402619,4.03066028 17.1539443,4.05056192 C17.1676267,4.07046355 17.1800652,4.09160904 17.1937476,4.11151067 C17.2061861,4.1314123 17.2198685,4.15255779 17.2335508,4.17245942 C17.2459894,4.19236105 17.2584279,4.21226269 17.2708664,4.23340817 C17.2833049,4.25330981 17.2969873,4.27321144 17.3094258,4.29311307 C17.3218643,4.31301471 17.333059,4.33416019 17.3454975,4.35406182 C17.357936,4.37520731 17.3691307,4.39510894 17.3815692,4.41501057 C17.3927639,4.43491221 17.4052024,4.45605769 17.4163971,4.47595933 C17.4275918,4.49586096 17.4387864,4.51700644 17.4499811,4.53566423 C17.4611758,4.55680971 17.4736143,4.57671134 17.4835651,4.59661298 C17.4947598,4.61775846 17.5059544,4.6376601 17.5159053,4.65756173 C17.5270999,4.67746336 17.5382946,4.69860885 17.5482454,4.71851048 C17.5581962,4.73965597 17.568147,4.7595576 17.5793417,4.77945923 C17.5892925,4.79936087 17.5992433,4.8192625 17.6091942,4.84040798 C17.619145,4.86030962 17.6290958,4.88021125 17.6390466,4.90011288 C17.6477536,4.92125837 17.6577044,4.94116 17.6664114,4.96106163 C17.6763622,4.98220712 17.686313,5.00210875 17.69502,5.02201039 C17.7037269,5.04191202 17.7124339,5.0630575 17.7211408,5.08295914 C17.7310917,5.10286077 17.7397986,5.1227624 17.7485056,5.14390789 C17.7572126,5.16380952 17.7646757,5.18371116 17.7733826,5.20485664 C17.7820896,5.22475827 17.7895527,5.24465991 17.7982597,5.26456154 C17.8069666,5.28570703 17.8144298,5.30560866 17.8231367,5.32551029 C17.8305998,5.34665578 17.8380629,5.36655741 17.8455261,5.38645904 C17.8529892,5.40636068 17.8616961,5.42750616 17.8679154,5.44740779 C17.8753785,5.46730943 17.8828416,5.48721106 17.8903047,5.50835655 C17.8977678,5.52825818 17.9039871,5.54815981 17.9114502,5.5693053 C17.9189133,5.58920693 17.9251326,5.60910856 17.9325957,5.6290102 C17.938815,5.65015568 17.9450342,5.67005732 17.9524973,5.68995895 C17.9587166,5.71110443 17.9649359,5.73100607 17.9711551,5.7509077 C17.9773744,5.77080933 17.9835936,5.79071097 17.9898129,5.81185645 C17.9960322,5.83175808 18.0010076,5.85165972 18.0072268,5.87156135 C18.0134461,5.89270684 18.0184215,5.91260847 18.0246408,5.93375395 C18.0296162,5.95365559 18.0358354,5.97355722 18.0408108,5.99345885 C18.0470301,6.01460434 18.0520055,6.03450597 18.0569809,6.05440761 C18.0619563,6.07430924 18.0669317,6.09421087 18.0719071,6.11535636 C18.0768825,6.13525799 18.0818579,6.15515962 18.0868334,6.17630511 C18.0905649,6.19620674 18.0955403,6.21610837 18.1005157,6.23601001 C18.1030034,6.24969238 18.106735,6.26337475 18.1092227,6.27581327 L18.1092227,6.27705713 C17.954985,6.2596432 17.7995035,6.24471697 17.644022,6.23601001 C17.5258561,6.22979075 17.4064463,6.22605919 17.2870365,6.22605919 C17.1514566,6.22605919 17.0171206,6.22979075 16.8827846,6.23601001 C16.660135,6.24844853 16.4399732,6.26835016 16.223543,6.29820261 C16.0954262,6.31437269 15.9685533,6.33551817 15.8416804,6.35790751 C15.7434161,6.37656529 15.6451517,6.39646693 15.5468874,6.41885626 C15.4635493,6.43751404 15.3789674,6.45741568 15.2968732,6.47980501 C15.2234859,6.4984628 15.1500986,6.51960828 15.0779552,6.54075377 C15.012031,6.55941155 14.9461069,6.57931318 14.8814266,6.60045866 C14.8204778,6.6203603 14.7607729,6.64150578 14.701068,6.66265127 C14.6450947,6.68130905 14.5891213,6.70121068 14.5343918,6.72235617 C14.4821501,6.7422578 14.4299083,6.76215943 14.3789103,6.78330492 C14.3304001,6.80320655 14.280646,6.82310819 14.2333796,6.84425367 C14.1861133,6.8641553 14.1400907,6.88405694 14.0940682,6.90520242 C14.0505334,6.9238602 14.0069986,6.94376184 13.9634637,6.96490732 C13.9211728,6.98480896 13.8801257,7.00595444 13.8390785,7.02585607 C13.7992753,7.04575771 13.759472,7.06565934 13.7209126,7.08680482 C13.6823532,7.10670646 13.6450376,7.12660809 13.6064782,7.14775358 C13.5704065,7.16765521 13.5330909,7.18755684 13.4970192,7.20870233 C13.4621914,7.22860396 13.4273635,7.24850559 13.3925356,7.26840723 C13.3589516,7.28830886 13.3253676,7.30945435 13.2917836,7.32935598 C13.2581996,7.34925761 13.2258595,7.3704031 13.1935193,7.39030473 C13.1611792,7.41020636 13.1300829,7.430108 13.0989866,7.45125348 C13.0691341,7.47115512 13.0380378,7.49105675 13.0081853,7.51095838 C12.9783329,7.53210387 12.9484804,7.5520055 12.9198719,7.57315098 C12.8912633,7.59305262 12.8626547,7.61295425 12.8340461,7.63285588 C12.8066813,7.65275752 12.7793166,7.67265915 12.7519518,7.69380464 C12.7245871,7.71370627 12.6972223,7.73485175 12.6711014,7.75350954 C12.6449805,7.77465502 12.6188597,7.79455665 12.5927388,7.81570214 C12.5666179,7.83560377 12.5417408,7.85550541 12.5156199,7.87540704 C12.4907429,7.89655252 12.4671097,7.91645416 12.4422327,7.93759964 C12.4185995,7.95750128 12.3937224,7.97740291 12.3700892,7.99730454 C12.346456,8.01720617 12.3240667,8.03835166 12.3004335,8.05825329 C12.2780442,8.07815493 12.254411,8.09930041 12.2320217,8.11795819 C12.2096323,8.13910368 12.187243,8.15900531 12.1660975,8.1801508 C12.1437082,8.20005243 12.1225627,8.21995406 12.1014172,8.2398557 C12.0802717,8.26100118 12.0578824,8.28090281 12.0379807,8.30080445 C12.0168352,8.32070608 11.9969336,8.34185157 11.9757881,8.3617532 C11.9558865,8.38165483 11.9359849,8.40155646 11.9160832,8.42270195 C11.8961816,8.44260358 11.87628,8.46250522 11.8576222,8.48240685 C11.8377205,8.50355233 11.8190628,8.52345397 11.7991611,8.54459945 C11.7805034,8.56450109 11.7630894,8.58440272 11.7444316,8.60430435 C11.7257739,8.62420599 11.7071161,8.64535147 11.6897022,8.6652531 C11.6710444,8.68515474 11.6536304,8.70505637 11.6362165,8.72620186 C11.6188026,8.74610349 11.6013887,8.76600512 11.5839747,8.78715061 C11.5665608,8.80705224 11.5503907,8.82695387 11.5329768,8.84685551 C11.5168067,8.86800099 11.4993928,8.88790262 11.4832227,8.90904811 C11.4670526,8.92894974 11.4508826,8.94885138 11.4347125,8.96875301 C11.4197863,8.98865464 11.4036162,9.00980013 11.3874461,9.02970176 C11.3725199,9.04960339 11.3563498,9.06950503 11.3414236,9.09065051 C11.3264973,9.11055215 11.3115711,9.13045378 11.2966449,9.15159926 C11.2817187,9.1715009 11.2667924,9.19140253 11.2518662,9.21130416 C11.23694,9.23244965 11.2232576,9.25235128 11.2095753,9.27225291 C11.194649,9.2933984 11.1809667,9.31205618 11.1660404,9.33320167 C11.1523581,9.3531033 11.1386757,9.37424878 11.1262372,9.39415042 C11.1125548,9.41405205 11.0988724,9.43395368 11.08519,9.45509917 C11.0727515,9.4750008 11.0590692,9.49490244 11.0466306,9.51604792 C11.0329483,9.53594955 11.0205097,9.55585119 11.0080712,9.57575282 C10.9956327,9.59689831 10.9831942,9.61679994 10.9707557,9.63670157 C10.9583171,9.6566032 10.9458786,9.67650484 10.9346839,9.69765032 C10.9222454,9.71755196 10.9098069,9.73869744 10.8973684,9.75859907 C10.8861737,9.77850071 10.874979,9.79840234 10.8637844,9.81954783 C10.8525897,9.83944946 10.8401512,9.85935109 10.8302004,9.88049658 C10.8190057,9.89915436 10.807811,9.92029984 10.7966164,9.94020148 C10.7854217,9.96010311 10.7754709,9.9812486 10.7642762,10.0011502 C10.7543254,10.0210519 10.7431307,10.0409535 10.7331799,10.062099 C10.7219852,10.0820006 10.7120344,10.1031461 10.7020836,10.1230477 C10.6921328,10.1429494 10.682182,10.162851 10.6722312,10.1839965 C10.6622803,10.2038981 10.6523295,10.2237997 10.6436226,10.2449452 C10.6336717,10.263603 10.6249648,10.2847485 10.615014,10.3046501 C10.606307,10.3245518 10.5963562,10.3456973 10.5876492,10.3655989 C10.5776984,10.3855005 10.5689914,10.4054022 10.5602845,10.4265476 C10.5515775,10.4464493 10.5428705,10.4663509 10.5341636,10.4874964 C10.5254566,10.507398 10.5179935,10.5272997 10.5092865,10.5472013 C10.5005796,10.5683468 10.4931165,10.5882484 10.4844095,10.60815 C10.4769464,10.6280517 10.4682394,10.6491972 10.4607763,10.6690988 C10.4520693,10.6890004 10.4458501,10.7101459 10.438387,10.7300475 C10.42968,10.7499492 10.4222169,10.7698508 10.4147538,10.7909963 C10.4072907,10.8108979 10.3998276,10.8320434 10.3936083,10.8507012 C10.3861452,10.8718467 10.3799259,10.8917483 10.3724628,10.9116499 C10.3649997,10.9327954 10.3587804,10.9526971 10.3513173,10.9725987 C10.3450981,10.9925003 10.3388788,11.0136458 10.3326595,11.0335474 C10.3251964,11.0534491 10.3189772,11.0745946 10.3127579,11.0944962 C10.3065386,11.1143978 10.3003194,11.1342995 10.2941001,11.155445 C10.2878809,11.1753466 10.2829055,11.1952482 10.2766862,11.2151499 C10.2704669,11.2350515 10.2654915,11.256197 10.2592723,11.2760986 C10.2542969,11.2960002 10.2493215,11.3171457 10.2431022,11.3370474 C10.2381268,11.356949 10.2331514,11.3780945 10.228176,11.3979961 C10.2219567,11.4178977 10.2169813,11.4377994 10.2120059,11.4589449 C10.2070305,11.4788465 10.2020551,11.4987481 10.1983235,11.5186498 C10.1933481,11.5397952 10.1883727,11.5596969 10.1833973,11.5795985 C10.1796657,11.5995001 10.1746903,11.6206456 10.1697149,11.6405473 C10.1659834,11.6604489 10.1622518,11.6815944 10.1585203,11.701496 C10.1535448,11.7213976 10.1498133,11.7425431 10.1460817,11.7624448 C10.1411063,11.7823464 10.1373748,11.802248 10.1336432,11.8221497 C10.1299117,11.8432951 10.127424,11.8631968 10.1236924,11.8830984 C10.1199608,11.9042439 10.1162293,11.9241455 10.1124977,11.9440472 C10.11001,11.9639488 10.1062785,11.9850943 10.1037908,12.0049959 C10.1000592,12.0248975 10.0975715,12.0447992 10.0950838,12.0659447 C10.0913522,12.0858463 10.0888645,12.1057479 10.085133,12.1268934 C10.0826453,12.1467951 10.0814014,12.1666967 10.0789137,12.1865983 C10.0751822,12.2065 10.0739383,12.2276454 10.0714506,12.2475471 C10.0689629,12.2686926 10.0664752,12.2885942 10.0639875,12.3084958 C10.0614998,12.3283975 10.0602559,12.3495429 10.0577682,12.3694446 C10.0565244,12.3893462 10.0540367,12.4092478 10.0527928,12.4303933 C10.0503051,12.450295 10.0490613,12.4701966 10.0478174,12.4913421 C10.0465736,12.5112437 10.0453297,12.5311453 10.0440859,12.551047 C10.0415982,12.5709486 10.0403543,12.5920941 10.0391105,12.6119957 C10.0378666,12.6331412 10.0378666,12.6530428 10.0366227,12.6729445 C10.0353789,12.6928461 10.0353789,12.7139916 10.034135,12.7338932 C10.0328912,12.7537949 10.0316473,12.7736965 10.0316473,12.7935981 C10.0304035,12.8147436 10.0304035,12.8346452 10.0304035,12.8557907 C10.0304035,12.8756924 10.0304035,12.895594 10.0291596,12.9154956 L10.0291596,12.9764444 L10.0279158,12.9826636 C10.0279158,13.0013214 10.0291596,13.0187354 10.0291596,13.0373931 C10.0291596,13.0572948 10.0291596,13.0771964 10.0304035,13.0983419 C10.0304035,13.1182435 10.0304035,13.1381452 10.0316473,13.1580468 C10.0316473,13.1791923 10.0328912,13.1990939 10.0328912,13.2189955 C10.034135,13.2388972 10.0353789,13.2600427 10.0353789,13.2799443 C10.0366227,13.2998459 10.0378666,13.3209914 10.0391105,13.340893 C10.0403543,13.3607947 10.0415982,13.3806963 10.042842,13.4018418 C10.0440859,13.4217434 10.0465736,13.4416451 10.0478174,13.4627905 C10.0490613,13.4826922 10.051549,13.5025938 10.0527928,13.5224954 C10.0552805,13.5436409 10.0565244,13.5635426 10.0590121,13.5834442 C10.0602559,13.6033458 10.0627436,13.6244913 10.0652313,13.6443929 C10.0677191,13.6642946 10.0702068,13.6854401 10.0714506,13.7053417 C10.0739383,13.7252433 10.076426,13.745145 10.0789137,13.7662904 C10.0826453,13.7861921 10.085133,13.8060937 10.0876207,13.8272392 C10.0901084,13.845897 10.0938399,13.8670425 10.0963276,13.8869441 C10.1000592,13.9080896 10.1025469,13.9279912 10.1062785,13.9478929 C10.1087662,13.9677945 10.1124977,13.98894 10.1162293,14.0088416 C10.118717,14.0287432 10.1224485,14.0498887 10.1261801,14.0697904 C10.1299117,14.089692 10.1336432,14.1095936 10.1373748,14.1294953 C10.1411063,14.1506407 10.1448379,14.1705424 10.1498133,14.190444 C10.1535448,14.2103456 10.1572764,14.2314911 10.1622518,14.2513928 C10.1659834,14.2725382 10.1697149,14.2924399 10.1746903,14.3123415 C10.1796657,14.3322431 10.1833973,14.3533886 10.1883727,14.3732903 C10.1933481,14.3931919 10.1970797,14.4130935 10.2020551,14.4329952 C10.2070305,14.4541406 10.2120059,14.4740423 10.2169813,14.4939439 C10.2219567,14.5150894 10.2269321,14.534991 10.2319075,14.5548927 C10.2381268,14.5747943 10.2431022,14.5959398 10.2480776,14.6158414 C10.2542969,14.6369869 10.2592723,14.6568885 10.2654915,14.6767902 C10.2704669,14.6966918 10.2766862,14.7165934 10.2816616,14.7377389 L10.2916124,14.7713229 C10.1485694,14.7825176 10.0042826,14.7924684 9.85999576,14.7974438 C9.73809825,14.8036631 9.6174446,14.8061508 9.4955471,14.8061508 C9.37738115,14.8061508 9.26170291,14.8036631 9.14726852,14.7974438 C8.90844892,14.787493 8.67709244,14.7663475 8.44946751,14.7377389 C8.31139993,14.720325 8.1745762,14.6991795 8.03650862,14.6767902 C7.92331808,14.6581324 7.80888369,14.6382308 7.6944493,14.6158414 C7.59120958,14.5959398 7.486726,14.5760381 7.38224243,14.5548927 C7.28397812,14.5362349 7.18446995,14.5150894 7.08247408,14.4939439 C6.98545362,14.4740423 6.8871893,14.4541406 6.78643729,14.4329952 C6.69439223,14.4143374 6.59985948,14.3956796 6.50408287,14.3770218 L6.39089233,14.4329952 L6.27023868,14.4939439 L6.14958503,14.5548927 L5.78638022,14.7377389 L5.66448272,14.7974438 L5.54382907,14.8583926 L5.42317542,14.9193413 L5.30127791,14.9802901 L5.18062426,15.039995 L5.05997061,15.1021876 L4.93807311,15.1618925 L4.81741946,15.2228412 L4.69676581,15.28379 L4.5748683,15.3447387 L4.45421465,15.4044436 L4.33231715,15.4666362 L4.2116635,15.5263411 L4.09100985,15.5872899 L3.72780504,15.7688923 L3.60590754,15.8310849 L3.52008175,15.8733759 L3.53376412,15.8310849 L3.5549096,15.7688923 L3.57481124,15.7091874 L3.59471287,15.6482386 L3.6146145,15.5872899 L3.63575999,15.5263411 L3.65566162,15.4666362 L3.67556326,15.4044436 L3.69546489,15.3447387 L3.71536652,15.28379 L3.73651201,15.2228412 L3.77631527,15.1021876 L3.79621691,15.039995 L3.81736239,14.9802901 L3.83726402,14.9193413 L3.85716566,14.8583926 L3.87706729,14.7974438 L3.89821278,14.7377389 L3.91811441,14.6767902 L3.95791768,14.5548927 L3.97781931,14.4939439 L3.99896479,14.4329952 L4.01886643,14.3732903 L4.03876806,14.3123415 L4.05866969,14.2513928 L4.07981518,14.190444 L4.09971681,14.1294953 L4.11961845,14.0697904 L4.13952008,14.0088416 L4.16066556,13.9478929 L4.1805672,13.8869441 L4.20046883,13.8272392 L4.22037046,13.7662904 L4.24151595,13.7053417 L4.26141758,13.6443929 L4.28131921,13.5834442 L4.30122085,13.5224954 L4.34226797,13.4018418 L4.3621696,13.340893 L4.37336427,13.3048213 C4.3621696,13.2973582 4.34973108,13.2886513 4.33853641,13.2799443 C4.30992781,13.2600427 4.28131921,13.2388972 4.25271062,13.2189955 C4.22410202,13.1990939 4.19673727,13.1791923 4.16812868,13.1580468 C4.14076393,13.1381452 4.11339918,13.1182435 4.08603444,13.0983419 C4.05866969,13.0784403 4.0325488,13.0572948 4.00642791,13.0373931 C3.97906316,13.0174915 3.95294227,12.996346 3.92682137,12.9764444 C3.90070048,12.9565428 3.87457959,12.9353973 3.84845869,12.9154956 C3.82358165,12.895594 3.79746076,12.8756924 3.77258372,12.8557907 C3.74770668,12.8346452 3.72158578,12.8147436 3.69795259,12.7935981 C3.67307555,12.7736965 3.64819851,12.7537949 3.62332147,12.7338932 C3.59968828,12.7139916 3.57605509,12.6928461 3.55117805,12.6729445 C3.52754486,12.6530428 3.50391167,12.6331412 3.48152233,12.6119957 C3.45788914,12.5920941 3.43425595,12.5709486 3.41186662,12.551047 C3.38823343,12.5311453 3.36584409,12.5112437 3.34345475,12.4913421 C3.32106542,12.4701966 3.29867608,12.450295 3.27628674,12.4303933 C3.2538974,12.4092478 3.23275192,12.3893462 3.21036258,12.3694446 C3.1892171,12.3495429 3.16807161,12.3283975 3.14692612,12.3084958 C3.12453679,12.2885942 3.1033913,12.2686926 3.08348967,12.2475471 C3.06234418,12.2276454 3.0411987,12.2077438 3.02129707,12.1865983 C3.00015158,12.1666967 2.98024995,12.1467951 2.96034831,12.1268934 C2.94044668,12.1069918 2.92054505,12.0858463 2.90064341,12.0659447 C2.88074178,12.0447992 2.862084,12.0248975 2.84218237,12.0049959 C2.82352459,11.9850943 2.80362295,11.9639488 2.78496517,11.9440472 C2.76630739,11.9241455 2.74764961,11.9042439 2.72899183,11.8830984 C2.71033405,11.8631968 2.69167627,11.8432951 2.67426234,11.8221497 C2.65560456,11.802248 2.63694678,11.7823464 2.61953285,11.7624448 C2.60211892,11.7425431 2.58470499,11.7213976 2.56729106,11.701496 C2.54863328,11.6815944 2.5324632,11.6604489 2.51504927,11.6405473 C2.49763534,11.6206456 2.48146527,11.5995001 2.46405134,11.5795985 C2.44788126,11.5596969 2.43046733,11.5397952 2.41429725,11.5186498 C2.39812718,11.4987481 2.3819571,11.4788465 2.36578702,11.4589449 C2.34961695,11.4390432 2.33344687,11.4178977 2.31852065,11.3979961 C2.30235057,11.3780945 2.28618049,11.356949 2.27125427,11.3370474 C2.25632804,11.3171457 2.24015796,11.2972441 2.22523174,11.2760986 C2.21030552,11.256197 2.19537929,11.2350515 2.18045307,11.2151499 C2.16552684,11.1952482 2.15184447,11.1753466 2.13691824,11.155445 C2.12323587,11.1342995 2.10830965,11.1143978 2.09338342,11.0944962 C2.07970105,11.0745946 2.06601867,11.0534491 2.0523363,11.0335474 C2.03865393,11.0136458 2.02497156,10.9925003 2.01128918,10.9725987 C1.99760681,10.9526971 1.98392444,10.9327954 1.97148592,10.9116499 C1.95780354,10.8917483 1.94536502,10.8718467 1.93168265,10.8507012 C1.91924413,10.8320434 1.90680561,10.8108979 1.89436709,10.7909963 C1.88192857,10.7698508 1.8682462,10.7499492 1.85580767,10.7300475 C1.84461301,10.7101459 1.83217449,10.6890004 1.81973596,10.6690988 C1.8085413,10.6491972 1.79610278,10.6280517 1.78490811,10.60815 C1.77246959,10.5882484 1.76127492,10.5683468 1.75008025,10.5472013 C1.73764173,10.5272997 1.72644706,10.507398 1.71525239,10.4874964 C1.70530157,10.4675948 1.69410691,10.4464493 1.68291224,10.4265476 C1.67171757,10.4054022 1.66176675,10.3855005 1.65057208,10.3655989 C1.63937741,10.3456973 1.6294266,10.3245518 1.61947578,10.3046501 C1.60952496,10.2847485 1.59957415,10.263603 1.58837948,10.2449452 C1.57842866,10.2237997 1.56847785,10.2038981 1.55852703,10.1839965 C1.54982006,10.162851 1.53986925,10.1429494 1.52991843,10.1230477 C1.52121147,10.1031461 1.51126065,10.0820006 1.50255369,10.062099 C1.49260287,10.0409535 1.48389591,10.0210519 1.47518894,10.0011502 C1.46523812,9.9812486 1.45653116,9.96134696 1.4478242,9.94020148 C1.43911723,9.92029984 1.43041027,9.90039821 1.42294715,9.88049658 C1.41424019,9.85935109 1.40553322,9.83944946 1.39682626,9.81954783 C1.38936315,9.79840234 1.38065618,9.77850071 1.37319307,9.75859907 C1.36572996,9.73869744 1.35702299,9.71755196 1.34955988,9.69765032 C1.34209677,9.67650484 1.33463366,9.6566032 1.32717054,9.63670157 C1.31970743,9.61679994 1.31224432,9.59689831 1.30478121,9.57575282 C1.29731809,9.55585119 1.29109883,9.53594955 1.28363572,9.51604792 C1.27617261,9.49490244 1.26995335,9.4750008 1.26373409,9.45509917 C1.25627098,9.43395368 1.25005172,9.41405205 1.24383246,9.39415042 C1.23636934,9.37424878 1.23015008,9.3531033 1.22393082,9.33320167 C1.21771156,9.31330003 1.2114923,9.2933984 1.20527304,9.27225291 C1.20029763,9.25235128 1.19407837,9.23244965 1.18785911,9.21130416 C1.1828837,9.19140253 1.17666444,9.1715009 1.17168904,9.15159926 C1.16546977,9.13045378 1.16049437,9.11055215 1.15427511,9.09065051 C1.1492997,9.06950503 1.14432429,9.04960339 1.13934888,9.02970176 C1.13437347,9.00980013 1.12939806,8.98865464 1.12442266,8.96875301 C1.11944725,8.94885138 1.11447184,8.92894974 1.10949643,8.90904811 C1.10576488,8.88790262 1.10078947,8.86800099 1.09705791,8.84685551 C1.0920825,8.82695387 1.08835095,8.80705224 1.08337554,8.78715061 C1.07964398,8.76600512 1.07466857,8.74610349 1.07093702,8.72620186 C1.06720546,8.70630022 1.0634739,8.68639859 1.05974235,8.6652531 C1.05601079,8.64535147 1.05227924,8.62544984 1.04854768,8.60430435 C1.04481612,8.58440272 1.04232842,8.56450109 1.03859686,8.54459945 C1.03486531,8.52345397 1.0323776,8.50355233 1.02864605,8.48240685 C1.02615834,8.46250522 1.02242679,8.44260358 1.01993908,8.42270195 C1.01745138,8.40280032 1.01371982,8.38165483 1.01123212,8.3617532 C1.00874441,8.34185157 1.00625671,8.32194993 1.00376901,8.30080445 C1.0012813,8.28090281 0.998793597,8.26100118 0.996305893,8.2398557 C0.993818189,8.21995406 0.992574337,8.20005243 0.990086633,8.1801508 C0.987598929,8.15900531 0.986355077,8.13910368 0.983867372,8.11795819 C0.98262352,8.09930041 0.980135816,8.07815493 0.978891964,8.05825329 C0.977648112,8.03835166 0.975160408,8.01720617 0.973916556,7.99730454 C0.972672704,7.97740291 0.971428852,7.95750128 0.970185,7.93759964 C0.968941148,7.91645416 0.967697295,7.89655252 0.966453443,7.87540704 C0.965209591,7.85550541 0.965209591,7.83560377 0.963965739,7.81570214 C0.962721887,7.79455665 0.961478035,7.77465502 0.961478035,7.75350954 C0.960234183,7.73485175 0.960234183,7.71370627 0.960234183,7.69380464 C0.958990331,7.673903 0.958990331,7.65275752 0.957746479,7.63285588 L0.957746479,7.57315098 L0.957746479,7.54081083 L0.957746479,7.51095838 C0.957746479,7.49105675 0.958990331,7.47115512 0.958990331,7.45125348 C0.958990331,7.430108 0.958990331,7.41020636 0.960234183,7.39030473 C0.960234183,7.3704031 0.960234183,7.35050146 0.961478035,7.32935598 C0.961478035,7.30945435 0.962721887,7.28955271 0.963965739,7.26840723 C0.965209591,7.24850559 0.965209591,7.22860396 0.966453443,7.20870233 C0.967697295,7.18755684 0.968941148,7.16765521 0.970185,7.14775358 C0.971428852,7.12660809 0.972672704,7.10670646 0.973916556,7.08680482 C0.97640426,7.06690319 0.977648112,7.04575771 0.978891964,7.02585607 C0.980135816,7.00595444 0.981379668,6.98605281 0.983867372,6.96490732 C0.985111224,6.94500569 0.987598929,6.92510406 0.990086633,6.90520242 C0.992574337,6.88405694 0.993818189,6.8641553 0.996305893,6.84425367 C0.998793597,6.82310819 1.00003745,6.80320655 1.00252515,6.78330492 C1.00501286,6.76340329 1.00874441,6.7422578 1.01123212,6.72235617 C1.01371982,6.70245453 1.01620753,6.68130905 1.01869523,6.66265127 C1.02242679,6.64150578 1.02367064,6.62160415 1.02740219,6.60045866 C1.0298899,6.58055703 1.03362146,6.5606554 1.03735301,6.54075377 C1.04108457,6.51960828 1.04357227,6.49970665 1.04730383,6.47980501 C1.05103538,6.45865953 1.05352309,6.4387579 1.05725464,6.41885626 C1.0609862,6.39895463 1.06471776,6.379053 1.06969317,6.35790751 C1.07342472,6.33800588 1.07715628,6.31686039 1.08088783,6.29820261 C1.08461939,6.27705713 1.08835095,6.25715549 1.09332635,6.23601001 C1.09705791,6.21610837 1.10203332,6.19620674 1.10700873,6.17630511 C1.11074028,6.15515962 1.11571569,6.13525799 1.1206911,6.11535636 C1.12442266,6.09545472 1.12939806,6.07430924 1.13437347,6.05440761 C1.13934888,6.03450597 1.14432429,6.01460434 1.1492997,5.99345885 C1.15427511,5.97355722 1.15925051,5.95365559 1.16546977,5.93375395 C1.17044518,5.91260847 1.17542059,5.89270684 1.180396,5.87156135 C1.18661526,5.85165972 1.19283452,5.83175808 1.19780993,5.81185645 C1.20402919,5.79195482 1.21024845,5.77080933 1.21646771,5.7509077 C1.22144312,5.73100607 1.22766238,5.71110443 1.23388164,5.68995895 C1.2401009,5.67005732 1.24632016,5.65015568 1.25253942,5.6290102 C1.26000253,5.60910856 1.26622179,5.58920693 1.27244105,5.5693053 C1.27866031,5.54815981 1.28612343,5.52825818 1.29234269,5.50835655 C1.2998058,5.48721106 1.30726891,5.46730943 1.31348817,5.44740779 C1.32095128,5.42750616 1.32717054,5.40636068 1.33463366,5.38645904 C1.34209677,5.36655741 1.34955988,5.34665578 1.35702299,5.32551029 C1.36448611,5.30560866 1.37319307,5.28570703 1.38065618,5.26456154 C1.3881193,5.24465991 1.39558241,5.22475827 1.40428937,5.20485664 C1.41175249,5.18371116 1.42045945,5.16380952 1.42792256,5.14390789 C1.43662953,5.1227624 1.44533649,5.10286077 1.45404346,5.08295914 C1.46275042,5.0630575 1.47021353,5.04191202 1.4789205,5.02201039 C1.48762746,5.00210875 1.49633443,4.98220712 1.50628524,4.96106163 C1.51499221,4.94116 1.52369917,4.92125837 1.53364999,4.90011288 C1.54235695,4.88021125 1.55106392,4.86030962 1.56101473,4.84040798 C1.5697217,4.8192625 1.58091637,4.79936087 1.58962333,4.77945923 C1.59957415,4.7595576 1.60952496,4.73965597 1.61947578,4.71851048 C1.6294266,4.69860885 1.63937741,4.67746336 1.64932823,4.65756173 C1.6605229,4.6376601 1.67047372,4.61775846 1.68042453,4.59661298 C1.6916192,4.57671134 1.70157002,4.55680971 1.71276469,4.53566423 C1.7227155,4.51576259 1.73391017,4.49586096 1.74510484,4.47595933 C1.75629951,4.45605769 1.76749418,4.43491221 1.77868885,4.41501057 C1.78988351,4.39510894 1.80107818,4.37520731 1.8135167,4.35406182 C1.82471137,4.33416019 1.83590604,4.31301471 1.84834456,4.29311307 C1.86078308,4.27321144 1.87197775,4.25330981 1.88317242,4.23340817 C1.89561094,4.21226269 1.90804946,4.19236105 1.92048798,4.17245942 C1.9329265,4.15255779 1.94660888,4.1314123 1.9590474,4.11151067 C1.97148592,4.09160904 1.98392444,4.07046355 1.99636296,4.05056192 C2.01004533,4.03066028 2.0237277,4.01075865 2.03616623,3.98961317 C2.0498486,3.96971153 2.06353097,3.94856605 2.07721334,3.92866441 C2.09089572,3.90876278 2.10457809,3.88886115 2.11826046,3.86895952 C2.13194283,3.84781403 2.14686906,3.8279124 2.16055143,3.80801076 C2.1742338,3.78810913 2.18916003,3.76696365 2.2028424,3.74706201 C2.21776863,3.72716038 2.23269485,3.70601489 2.24762108,3.68611326 C2.2625473,3.66621163 2.27747353,3.64630999 2.29239975,3.62516451 C2.30856983,3.60526288 2.32349605,3.58536124 2.33842228,3.56545961 C2.35459236,3.54555798 2.37076243,3.52441249 2.38568866,3.50451086 C2.40185873,3.48460923 2.41802881,3.46346374 2.43419889,3.44356211 C2.45036896,3.42366047 2.46653904,3.40251499 2.48395297,3.38261336 C2.50012305,3.36271172 2.51629312,3.34156624 2.53370705,3.3216646 C2.55112098,3.30176297 2.56853491,3.28186134 2.58594884,3.2619597 C2.60336277,3.24081422 2.61953285,3.22091259 2.63819063,3.20101095 C2.65560456,3.17986547 2.67301849,3.15996383 2.69167627,3.1400622 C2.71033405,3.12016057 2.72774798,3.09901508 2.74640576,3.07911345 C2.76506354,3.05921182 2.78372132,3.03806633 2.8023791,3.0181647 C2.82103688,2.99826307 2.84093852,2.97711758 2.86084015,2.9584598 C2.87949793,2.93731431 2.89815571,2.91741268 2.91805734,2.89751105 C2.93795898,2.87636556 2.95910446,2.85646393 2.9790061,2.8365623 C2.99890773,2.81666066 3.01880936,2.79551518 3.03995485,2.77561354 C3.06110033,2.75446806 3.08224582,2.73456643 3.1033913,2.71466479 C3.12453679,2.69476316 3.14568227,2.67361767 3.16682776,2.65371604 C3.1892171,2.63381441 3.21036258,2.61391278 3.23275192,2.59401114 C3.25514126,2.57286566 3.27753059,2.55296402 3.29991993,2.53306239 C3.32230927,2.51191691 3.34594246,2.49201527 3.36957565,2.47211364 C3.39196498,2.45221201 3.41559817,2.43106652 3.43923136,2.41116489 C3.46286455,2.39126325 3.48649774,2.37136162 3.51137478,2.35021614 C3.53625182,2.3303145 3.55988501,2.30916902 3.58476205,2.29051124 C3.6096391,2.26936575 3.63575999,2.24946412 3.66063703,2.22956249 C3.68675792,2.208417 3.71163497,2.18851537 3.73775586,2.16861373 C3.76387675,2.14746825 3.7912415,2.12756662 3.81736239,2.10766498 C3.84472714,2.08776335 3.87209188,2.06661786 3.89945663,2.04671623 C3.92682137,2.0268146 3.95542997,2.00691296 3.98279472,1.98701133 C4.01140331,1.96586585 4.04001191,1.94472036 4.06862051,1.92606258 C4.09722911,1.90491709 4.12708156,1.88501546 4.15693401,1.86511383 C4.18678646,1.84521219 4.21663891,1.82406671 4.24773521,1.80416508 C4.27883151,1.78301959 4.30992781,1.76311796 4.34102411,1.74321633 C4.37336427,1.72331469 4.40446057,1.70216921 4.43680072,1.68226757 C4.47038473,1.66236594 4.50272488,1.64246431 4.53630889,1.62256267 C4.56989289,1.60141719 4.60472075,1.58151556 4.63830476,1.56161392 C4.67313262,1.54046844 4.70796047,1.5205668 4.74278833,1.50066517 C4.77886004,1.47951969 4.81617561,1.45961805 4.85224732,1.43971642 C4.88956288,1.41981479 4.92687844,1.3986693 4.96543785,1.37876767 C5.00275342,1.35886603 5.04131283,1.33772055 5.0811161,1.31781892 C5.12091936,1.29791728 5.16196648,1.27801565 5.2030136,1.25811402 C5.24406072,1.23696853 5.28635169,1.2170669 5.32864266,1.19716527 C5.37093363,1.17726363 5.41446845,1.15611815 5.45800327,1.13621651 C5.5040258,1.11507103 5.54880448,1.0951694 5.594827,1.07526776 C5.64333723,1.05536613 5.69060361,1.03422064 5.73911384,1.01431901 C5.78886793,0.994417378 5.83862201,0.973271893 5.88837609,0.95337026 C5.94186173,0.933468626 5.99410352,0.913566993 6.04758916,0.89366536 C6.10231865,0.872519875 6.15829199,0.85137439 6.21426533,0.832716609 C6.27272638,0.811571123 6.33243128,0.79166949 6.39213618,0.771767857 C6.45557264,0.750622372 6.51900909,0.730720739 6.58244555,0.710819106 C6.65085741,0.690917472 6.72051313,0.669771987 6.78892499,0.651114206 C6.86479997,0.628724869 6.93943109,0.608823236 7.01654992,0.588921603 C7.09988801,0.567776117 7.1832261,0.547874484 7.26780804,0.529216703 C7.3623408,0.506827366 7.45687355,0.486925733 7.55265016,0.468267952 C7.6658407,0.445878614 7.78027509,0.425976981 7.89595333,0.4073192 C8.04148403,0.383686011 8.18950242,0.363784378 8.33752082,0.346370449 L8.33752082,0.346370449 Z M15.4735002,10.10439 C15.0481027,10.10439 14.6189738,10.5322751 14.6189738,10.9576725 C14.6189738,11.3892891 15.0481027,11.8121988 15.4735002,11.8121988 C16.1190594,11.8121988 16.5419691,11.3892891 16.5419691,10.9576725 C16.5419691,10.5322751 16.1190594,10.10439 15.4735002,10.10439 L15.4735002,10.10439 Z M20.1690417,10.10439 C19.7473759,10.10439 19.3207346,10.5322751 19.3207346,10.9576725 C19.3207346,11.3892891 19.7473759,11.8121988 20.1690417,11.8121988 C20.8096255,11.8121988 21.2375107,11.3892891 21.2375107,10.9576725 C21.2375107,10.5322751 20.8096255,10.10439 20.1690417,10.10439 L20.1690417,10.10439 Z M6.72175698,3.91125049 C6.08117316,3.91125049 5.43561394,4.33416019 5.43561394,4.97598786 C5.43561394,5.61657168 6.08117316,6.04445679 6.72175698,6.04445679 C7.36109694,6.04445679 7.7877382,5.61657168 7.7877382,4.97598786 C7.7877382,4.33416019 7.36109694,3.91125049 6.72175698,3.91125049 L6.72175698,3.91125049 Z M12.6959785,6.04445679 C13.33905,6.04445679 13.7656913,5.61657168 13.7656913,4.97598786 C13.7656913,4.33416019 13.33905,3.91125049 12.6959785,3.91125049 C12.0566385,3.91125049 11.4148108,4.33416019 11.4148108,4.97598786 C11.4148108,5.61657168 12.0566385,6.04445679 12.6959785,6.04445679 L12.6959785,6.04445679 Z M12.4521835,8.70008096 C12.4708413,8.68391088 12.489499,8.66649696 12.5081568,8.64908303 C12.5268146,8.6316691 12.5454724,8.61425517 12.565374,8.59684124 C12.5840318,8.58067116 12.6039334,8.56325723 12.6238351,8.5458433 C12.6437367,8.52842938 12.6623945,8.51101545 12.68354,8.49484537 C12.7034416,8.47743144 12.7233432,8.46001751 12.7444887,8.44260358 C12.7643903,8.42518965 12.7855358,8.40777573 12.8066813,8.39160565 C12.8278268,8.37419172 12.8489723,8.35677779 12.8713616,8.33936386 C12.8925071,8.32194993 12.9136526,8.304536 12.9360419,8.28836593 C12.9584313,8.270952 12.9808206,8.25353807 13.0044538,8.23612414 C13.0268431,8.21995406 13.0492325,8.20129628 13.0728657,8.1851262 C13.0964988,8.16771228 13.120132,8.15029835 13.1437652,8.13288442 C13.1673984,8.11671434 13.1922755,8.09930041 13.2159086,8.08188648 C13.2407857,8.06447255 13.2656627,8.04705862 13.2905398,8.0296447 C13.3166607,8.01347462 13.3415377,7.99606069 13.3676586,7.97864676 C13.3937795,7.96123283 13.4199004,7.9438189 13.4460213,7.92640497 C13.473386,7.9102349 13.5007508,7.89282097 13.5281155,7.87540704 C13.5554803,7.85799311 13.5840889,7.84057918 13.6114536,7.8244091 C13.6400622,7.80699517 13.6686708,7.78958125 13.6985232,7.77216732 C13.7283757,7.75475339 13.7582281,7.73733946 13.7880806,7.72116938 C13.817933,7.70375545 13.8490293,7.68634152 13.8788818,7.66892759 C13.911222,7.65151367 13.9435621,7.63409974 13.9746584,7.61792966 C14.0082424,7.60051573 14.0405826,7.5831018 14.0729227,7.56693172 C14.1077506,7.54827394 14.1413346,7.53086001 14.1749186,7.51468994 C14.2109903,7.49727601 14.247062,7.47986208 14.2831337,7.46244815 C14.3192054,7.44503422 14.356521,7.42762029 14.3938366,7.41145022 C14.432396,7.39403629 14.4697115,7.37662236 14.5082709,7.35920843 C14.5493181,7.3417945 14.5891213,7.32438057 14.6301685,7.30821049 C14.6724594,7.29079656 14.7147504,7.27338264 14.7582852,7.25596871 C14.8030639,7.23979863 14.8478426,7.2223847 14.8926212,7.20497077 C14.9398876,7.18755684 14.987154,7.17014291 15.0344204,7.15397284 C15.0841745,7.13655891 15.1351724,7.11914498 15.1849265,7.10173105 C15.2384121,7.08307327 15.2931416,7.06690319 15.3478711,7.05073311 C15.4050883,7.03207533 15.4635493,7.01590526 15.5220104,6.99849133 C15.5866907,6.97983355 15.6501271,6.96366347 15.7148075,6.94749339 C15.785707,6.92883561 15.8566066,6.91142168 15.92875,6.89525161 C16.0083565,6.87659382 16.0892069,6.8591799 16.1700573,6.84425367 C16.2658339,6.82435204 16.3640982,6.80818196 16.4623626,6.79201188 C16.5867478,6.77211025 16.7123768,6.75594017 16.8392497,6.74101395 C17.1539443,6.70494224 17.476102,6.68504061 17.8032351,6.68504061 L17.8492576,6.68504061 C18.1589768,6.68504061 18.4662082,6.70494224 18.7684643,6.74101395 C18.8903618,6.75594017 19.0110154,6.77211025 19.1316691,6.79201188 C19.2262019,6.80818196 19.3207346,6.82435204 19.4140235,6.84425367 C19.4923862,6.8591799 19.5707489,6.87659382 19.6478677,6.89525161 C19.7187673,6.91142168 19.7871791,6.92883561 19.8568349,6.94749339 C19.9202713,6.96366347 19.9824639,6.97983355 20.0446565,6.99849133 C20.1018737,7.01590526 20.1590909,7.03207533 20.2163081,7.05073311 C20.2697937,7.06690319 20.3232794,7.08307327 20.3755212,7.10173105 C20.4252753,7.11914498 20.4750293,7.13655891 20.5247834,7.15397284 C20.5720498,7.17014291 20.6180723,7.18755684 20.6640949,7.20497077 C20.7088735,7.2223847 20.7536522,7.23979863 20.797187,7.25596871 C20.839478,7.27338264 20.881769,7.29079656 20.9240599,7.30821049 C20.9638632,7.32438057 21.0049103,7.3417945 21.0447136,7.35920843 C21.083273,7.37662236 21.1205886,7.39403629 21.159148,7.41145022 C21.1964635,7.42762029 21.2325352,7.44503422 21.2698508,7.46244815 C21.3046787,7.47986208 21.3407504,7.49727601 21.3768221,7.51468994 C21.4104061,7.53086001 21.4439901,7.54827394 21.4775741,7.56693172 C21.5111581,7.5831018 21.5434983,7.60051573 21.5770823,7.61792966 C21.6094224,7.63409974 21.6405187,7.65151367 21.6728589,7.66892759 C21.7039552,7.68634152 21.7338076,7.70375545 21.7649039,7.72116938 C21.7947564,7.73733946 21.8246088,7.75475339 21.8544613,7.77216732 C21.8830699,7.78958125 21.9129223,7.80699517 21.9415309,7.8244091 C21.9701395,7.84057918 21.9975043,7.85799311 22.024869,7.87540704 C22.0534776,7.89282097 22.0808424,7.9102349 22.1082071,7.92640497 C22.134328,7.9438189 22.1604489,7.96123283 22.1865698,7.97864676 C22.2126907,7.99606069 22.2388116,8.01347462 22.2649325,8.0296447 C22.2898095,8.04705862 22.3159304,8.06447255 22.3408074,8.08188648 C22.3656845,8.09930041 22.3893177,8.11671434 22.4141947,8.13288442 C22.4378279,8.15029835 22.4614611,8.16771228 22.4863381,8.1851262 C22.5087275,8.20129628 22.5323607,8.21995406 22.5559939,8.23612414 C22.5783832,8.25353807 22.6020164,8.270952 22.6244057,8.28836593 C22.6467951,8.304536 22.6691844,8.32194993 22.6903299,8.33936386 C22.7127192,8.35677779 22.7351085,8.37419172 22.756254,8.39160565 C22.7773995,8.40777573 22.798545,8.42518965 22.8196905,8.44260358 C22.840836,8.46001751 22.8619815,8.47743144 22.8818831,8.49484537 C22.9030286,8.51101545 22.9229302,8.52842938 22.9428318,8.5458433 C22.9627335,8.56325723 22.9826351,8.58067116 23.0025367,8.59684124 C23.0224384,8.61425517 23.0410962,8.6316691 23.0597539,8.64908303 C23.0796556,8.66649696 23.0983134,8.68391088 23.1169711,8.70008096 C23.1356289,8.71749489 23.1542867,8.73490882 23.1729445,8.75232275 C23.1903584,8.76973668 23.2090162,8.78715061 23.227674,8.80332068 C23.2450879,8.82073461 23.2625018,8.83814854 23.2811596,8.85556247 C23.2985735,8.8729764 23.3147436,8.88914648 23.3321575,8.90656041 C23.3495715,8.92397433 23.3669854,8.94138826 23.3843993,8.95880219 C23.4005694,8.97621612 23.4167395,8.9923862 23.4341534,9.00980013 C23.4503235,9.02721406 23.4664936,9.04462799 23.4839075,9.06204191 C23.4988337,9.07821199 23.5150038,9.09686977 23.52993,9.11303985 C23.5461001,9.13045378 23.5622702,9.14786771 23.5784403,9.16528164 C23.5933665,9.18145171 23.6082927,9.20010949 23.6232189,9.21627957 C23.6381452,9.2336935 23.6530714,9.25110743 23.6679976,9.26852136 C23.6829238,9.28469144 23.6978501,9.30210536 23.7127763,9.31951929 C23.7277025,9.33693322 23.7413849,9.35434715 23.7550672,9.37051723 C23.7699935,9.38793116 23.7849197,9.40534509 23.7986021,9.42275902 C23.8122844,9.44017294 23.8259668,9.45758687 23.8396492,9.47375695 C23.8533316,9.49117088 23.8670139,9.50858481 23.8794525,9.52599874 C23.8931348,9.54341267 23.9068172,9.5608266 23.9192557,9.57824052 C23.9329381,9.5944106 23.9453766,9.61182453 23.9578151,9.62923846 C23.9714975,9.64665239 23.983936,9.66282247 23.9963746,9.68023639 C24.0088131,9.69765032 24.0212516,9.71506425 24.0336901,9.73247818 C24.0461286,9.74989211 24.0585672,9.76730604 24.0697618,9.78347612 C24.0822003,9.80089005 24.093395,9.81830397 24.1058335,9.8357179 C24.1170282,9.85313183 24.1282229,9.87054576 24.1406614,9.88671584 C24.1518561,9.90412977 24.1630507,9.9215437 24.1754892,9.93771377 C24.1854401,9.9551277 24.1966347,9.97378548 24.2078294,9.98995556 C24.2190241,10.0073695 24.2302187,10.0247834 24.2401696,10.0409535 C24.2513642,10.0583674 24.261315,10.0757814 24.2725097,10.0931953 C24.2824605,10.1106092 24.2936552,10.1280231 24.303606,10.1441932 C24.3135568,10.1616071 24.3247515,10.1790211 24.3347023,10.196435 C24.3446531,10.2138489 24.3533601,10.2312629 24.3633109,10.2486768 C24.3732617,10.2648469 24.3832125,10.2822608 24.3931634,10.2996747 C24.4018703,10.3170887 24.4118211,10.3332587 24.421772,10.3506727 C24.4304789,10.3680866 24.4391859,10.3855005 24.4491367,10.4029144 C24.4578437,10.4203284 24.4677945,10.4377423 24.4765014,10.4539124 C24.4852084,10.4713263 24.4939154,10.4887402 24.5026223,10.5061542 C24.5113293,10.5235681 24.5200363,10.540982 24.5274994,10.5571521 C24.5362063,10.574566 24.5449133,10.59198 24.5536203,10.60815 C24.5610834,10.6268078 24.5697904,10.6442217 24.5772535,10.6603918 C24.5859604,10.6778058 24.5934235,10.6952197 24.6008867,10.7113898 C24.6083498,10.7300475 24.6170567,10.7462176 24.6245198,10.7636315 C24.631983,10.7810455 24.6394461,10.7984594 24.6469092,10.8146295 C24.6543723,10.8320434 24.6618354,10.8494573 24.6692985,10.8668713 C24.6767616,10.8842852 24.6829809,10.9016991 24.690444,10.9178692 C24.6979071,10.9352831 24.7041264,10.9526971 24.7103456,10.970111 C24.7178088,10.9875249 24.724028,11.0049389 24.7314911,11.0211089 C24.7377104,11.0385229 24.7439296,11.0559368 24.7501489,11.0733507 C24.7563682,11.0907646 24.7625874,11.1081786 24.7688067,11.1243486 C24.7750259,11.1417626 24.7812452,11.1591765 24.7874645,11.1765904 C24.7936837,11.1940044 24.799903,11.2114183 24.8048784,11.2275884 C24.8110977,11.2450023 24.8160731,11.2624162 24.8222923,11.2798302 C24.8272677,11.2972441 24.833487,11.314658 24.8397063,11.3308281 C24.8446817,11.348242 24.8496571,11.365656 24.8546325,11.3830699 C24.8596079,11.4004838 24.8645833,11.4178977 24.8695587,11.4340678 C24.8745341,11.4514817 24.8807534,11.4688957 24.8857288,11.4850658 C24.8907042,11.5037235 24.8944357,11.5198936 24.8994112,11.5373075 C24.9043866,11.5547215 24.9081181,11.5721354 24.9130935,11.5895493 C24.9168251,11.6069633 24.9218005,11.6231333 24.9267759,11.6405473 C24.9305075,11.6579612 24.934239,11.6753751 24.9379706,11.6915452 C24.942946,11.7089591 24.9466775,11.7263731 24.9504091,11.743787 C24.9541406,11.7612009 24.9591161,11.7786148 24.9628476,11.7947849 C24.9665792,11.8121988 24.9690669,11.8296128 24.9727984,11.8470267 C24.97653,11.8644406 24.9802615,11.8818546 24.9839931,11.8980246 C24.9864808,11.9154386 24.9902124,11.9328525 24.9939439,11.9502664 C24.9964316,11.9676804 24.9989193,11.9850943 25.0026509,12.0012644 C25.0051386,12.0186783 25.0088701,12.0360922 25.0113578,12.0535061 C25.0138455,12.0709201 25.0175771,12.0870902 25.0200648,12.1045041 C25.0225525,12.121918 25.0237964,12.1393319 25.0275279,12.1567459 C25.0287718,12.1741598 25.0325033,12.1903299 25.0337472,12.2077438 C25.0362349,12.2251577 25.0387226,12.2425717 25.0412103,12.2599856 C25.043698,12.2773995 25.0449418,12.2935696 25.0461857,12.3109835 C25.0486734,12.3283975 25.0511611,12.3445675 25.052405,12.3619815 C25.0536488,12.3806392 25.0561365,12.3968093 25.0573804,12.4142232 C25.0586242,12.4316372 25.0598681,12.4490511 25.0611119,12.4652212 C25.0635996,12.4826351 25.0648435,12.500049 25.0660873,12.517463 C25.0673312,12.5348769 25.068575,12.5522908 25.0698189,12.5684609 C25.0710627,12.5858748 25.0710627,12.6032888 25.0723066,12.6207027 C25.0723066,12.6381166 25.0735504,12.6542867 25.0747943,12.6717006 C25.0747943,12.6891146 25.0760381,12.7065285 25.077282,12.7239424 L25.077282,12.7749403 C25.077282,12.7923543 25.0785259,12.8097682 25.0785259,12.8271821 L25.0785259,12.9391288 C25.0785259,12.9528112 25.0785259,12.9677374 25.077282,12.9814198 C25.077282,12.9988337 25.077282,13.0162477 25.0760381,13.0336616 C25.0760381,13.0510755 25.0747943,13.0684894 25.0735504,13.0846595 C25.0735504,13.1020734 25.0723066,13.1194874 25.0710627,13.1369013 C25.0710627,13.1543152 25.0698189,13.1704853 25.068575,13.1878992 C25.0673312,13.2053132 25.0660873,13.2227271 25.0648435,13.2388972 C25.0623558,13.257555 25.0611119,13.273725 25.0598681,13.291139 C25.0573804,13.3085529 25.0561365,13.3259668 25.0548927,13.3421369 C25.052405,13.3607947 25.0511611,13.3769648 25.0486734,13.3943787 C25.0461857,13.4117926 25.0449418,13.4292065 25.0424541,13.4453766 C25.0399664,13.4627905 25.0374787,13.4802045 25.034991,13.4976184 C25.0325033,13.5150323 25.0300156,13.5312024 25.0275279,13.5486163 C25.0250402,13.5660303 25.0225525,13.5834442 25.018821,13.6008581 C25.0163332,13.6182721 25.0138455,13.6344421 25.010114,13.6518561 C25.0076263,13.66927 25.0038947,13.6866839 25.001407,13.7040978 C24.9976755,13.7215118 24.9939439,13.7389257 24.9914562,13.7550958 C24.9877247,13.7725097 24.9839931,13.7899236 24.9802615,13.8073376 C24.97653,13.8247515 24.9727984,13.8409216 24.9690669,13.8583355 C24.9653353,13.8757494 24.9603599,13.8931634 24.9566283,13.9105773 C24.9528968,13.9267474 24.9491652,13.9441613 24.9441898,13.9615752 C24.9404583,13.9789892 24.9354829,13.9964031 24.9305075,14.013817 C24.9267759,14.0312309 24.9218005,14.047401 24.9168251,14.0648149 C24.9118497,14.0822289 24.9081181,14.098399 24.9031427,14.1158129 C24.8981673,14.1344707 24.8931919,14.1506407 24.8882165,14.1680547 C24.8819972,14.1854686 24.8770218,14.2016387 24.8720464,14.2190526 C24.867071,14.2364665 24.8608517,14.2538805 24.8558763,14.2712944 C24.8496571,14.2887083 24.8446817,14.3048784 24.8384624,14.3222923 C24.8322431,14.3397063 24.8272677,14.3571202 24.8210485,14.3745341 C24.8148292,14.391948 24.80861,14.409362 24.8023907,14.425532 C24.7961714,14.442946 24.7899522,14.4603599 24.7837329,14.4777738 C24.7775137,14.4939439 24.7712944,14.5113578 24.7650751,14.5287718 C24.757612,14.5461857 24.7513928,14.5635996 24.7439296,14.5810136 C24.7377104,14.5971836 24.7302473,14.6145976 24.724028,14.6320115 C24.7165649,14.6494254 24.7091018,14.6668393 24.7016387,14.6842533 C24.6954194,14.7016672 24.6879563,14.7178373 24.6804932,14.7352512 C24.6717862,14.7526651 24.665567,14.7700791 24.65686,14.787493 C24.6493969,14.8049069 24.6419338,14.821077 24.6344707,14.8384909 C24.6257637,14.8559049 24.6183006,14.8720749 24.6095936,14.8907327 C24.6021305,14.9081467 24.5934235,14.9243167 24.5859604,14.9417307 C24.5772535,14.9591446 24.5685465,14.9753147 24.5598395,14.9927286 C24.5511326,15.0101425 24.5424256,15.0275565 24.5337186,15.0449704 C24.5250117,15.0623843 24.5163047,15.0797982 24.5075978,15.0959683 C24.4988908,15.1133822 24.48894,15.1307962 24.480233,15.1482101 C24.471526,15.165624 24.4615752,15.1817941 24.4516244,15.199208 C24.4429174,15.216622 24.4329666,15.2340359 24.4242597,15.2514498 C24.4143088,15.2688638 24.404358,15.2850338 24.3944072,15.3024478 C24.3844564,15.3198617 24.3745056,15.3372756 24.3645548,15.3546895 C24.3546039,15.3721035 24.3446531,15.3882736 24.3334585,15.4056875 C24.3235076,15.4231014 24.312313,15.4405153 24.3023622,15.4579293 C24.2911675,15.4753432 24.2812167,15.4915133 24.270022,15.5089272 C24.2600712,15.5263411 24.2488765,15.5437551 24.2376819,15.561169 C24.2264872,15.5785829 24.2152925,15.594753 24.2040978,15.6121669 C24.1929032,15.6295809 24.1817085,15.6457509 24.1705138,15.6644087 C24.1593192,15.6805788 24.1468807,15.6979927 24.135686,15.7154066 C24.1232475,15.7328206 24.1120528,15.7502345 24.0996143,15.7676484 C24.0884196,15.7838185 24.0759811,15.8012324 24.0635426,15.8186464 C24.0523479,15.8360603 24.0399094,15.8522304 24.0274709,15.8696443 C24.0150323,15.8870582 24.0025938,15.9044722 23.9901553,15.9218861 C23.9764729,15.9380562 23.9640344,15.9554701 23.9515959,15.972884 C23.9379135,15.990298 23.925475,16.0077119 23.9130365,16.0251258 C23.8993541,16.0425397 23.8856717,16.0587098 23.8732332,16.0761237 C23.8595508,16.0935377 23.8458684,16.1109516 23.8321861,16.1283655 C23.8185037,16.1457795 23.8048213,16.1619495 23.791139,16.1793635 C23.7774566,16.1967774 23.7637742,16.2141913 23.748848,16.2316053 C23.7351656,16.2477753 23.7202394,16.2651893 23.706557,16.2826032 C23.6916308,16.3000171 23.6779484,16.317431 23.6630222,16.334845 C23.648096,16.3510151 23.6344136,16.368429 23.6194874,16.3858429 C23.6045611,16.4032568 23.5896349,16.4206708 23.5734648,16.4380847 C23.5585386,16.4542548 23.5436124,16.4716687 23.5286862,16.4890826 C23.5125161,16.5064966 23.4975899,16.5226666 23.4826636,16.5413244 C23.4664936,16.5574945 23.4503235,16.5749084 23.4341534,16.5923224 C23.4192272,16.6097363 23.4030571,16.6259064 23.386887,16.6445641 C23.370717,16.6607342 23.3545469,16.6781481 23.3383768,16.6955621 C23.3209629,16.712976 23.3047928,16.7291461 23.2886227,16.74656 C23.2712088,16.7639739 23.2550387,16.7813879 23.2376248,16.7988018 C23.2202109,16.8162157 23.2040408,16.8323858 23.1866269,16.8497997 C23.1692129,16.8672137 23.151799,16.8846276 23.1343851,16.9020415 C23.1169711,16.9194555 23.0995572,16.9356255 23.0821433,16.9530395 C23.0634855,16.9704534 23.0460716,16.9878673 23.0274138,17.0052812 C23.0099999,17.0214513 22.9913421,17.0388653 22.9726843,17.0562792 C22.9552704,17.0736931 22.9366126,17.091107 22.9179548,17.108521 C22.899297,17.124691 22.8806392,17.142105 22.8619815,17.1595189 C22.8420798,17.1769328 22.823422,17.1943468 22.8035204,17.2117607 C22.7848626,17.2279308 22.764961,17.2453447 22.7463032,17.2627586 C22.7264016,17.2801726 22.7065,17.2975865 22.6865983,17.3150004 C22.6666967,17.3311705 22.6467951,17.3485844 22.6268934,17.3659983 C22.6069918,17.3834123 22.5858463,17.3995824 22.5659447,17.4169963 C22.546043,17.4344102 22.5248975,17.4518241 22.5037521,17.4692381 C22.4838504,17.486652 22.4627049,17.5028221 22.4415595,17.520236 C22.420414,17.5376499 22.3992685,17.5550639 22.3768792,17.5724778 C22.3557337,17.5898917 22.3345882,17.6060618 22.3121988,17.6234757 C22.2910534,17.6408897 22.268664,17.6583036 22.2475185,17.6757175 C22.2251292,17.6918876 22.2027399,17.7093015 22.1803505,17.7267154 C22.1579612,17.7441294 22.1355719,17.7615433 22.1119387,17.7789572 L22.0883055,17.7963712 L22.0995001,17.8299552 L22.1144264,17.882197 L22.1293526,17.9331949 L22.1455227,17.9841928 L22.1604489,18.0364346 L22.176619,18.0874325 L22.1915452,18.1396743 L22.2077153,18.1906723 L22.2226415,18.2429141 L22.2388116,18.2951558 L22.2537378,18.3461538 L22.2699079,18.3983956 L22.2848341,18.4493935 L22.3010042,18.5003914 L22.3159304,18.5526332 L22.3321005,18.6036312 L22.3470267,18.6558729 L22.378123,18.7578688 L22.3942931,18.8101106 L22.4092193,18.8611085 L22.4403156,18.9655921 L22.4564857,19.01659 L22.4714119,19.067588 L22.4863381,19.1198298 L22.5025082,19.1708277 L22.5186783,19.2230695 L22.5336045,19.2740674 L22.5485307,19.3250654 L22.5647008,19.3773071 L22.579627,19.4283051 L22.5957971,19.4805469 L22.6107233,19.5315448 L22.6268934,19.5837866 L22.6418196,19.6360284 L22.6579897,19.6870263 L22.6729159,19.7380242 L22.689086,19.790266 L22.7040122,19.841264 L22.7201823,19.8935058 L22.731377,19.9295775 L22.664209,19.8935058 L22.5696762,19.841264 L22.4751435,19.790266 L22.3818546,19.7380242 L22.2873218,19.6870263 L22.192789,19.6360284 L22.0982563,19.5837866 L22.0049674,19.5315448 L21.9104346,19.4805469 L21.8159019,19.4283051 L21.722613,19.3773071 L21.6280802,19.3250654 L21.4390147,19.2230695 L21.3457258,19.1708277 L21.251193,19.1198298 L21.1566603,19.067588 L20.9688386,18.9655921 L20.8743059,18.9133503 L20.7810169,18.8611085 L20.6864842,18.8101106 L20.5919514,18.7578688 L20.4041298,18.6558729 L20.3892035,18.647166 L20.3568634,18.6558729 C20.2884515,18.6732869 20.2187958,18.6894569 20.1503839,18.7068709 C20.0807282,18.7242848 20.0110725,18.7416987 19.9401729,18.7578688 C19.8680295,18.7765266 19.79713,18.7926967 19.7249865,18.8101106 C19.6491116,18.8275245 19.5732366,18.8449385 19.4973616,18.8611085 C19.4165112,18.8797663 19.334417,18.8971802 19.2535666,18.9133503 C19.1627654,18.9307643 19.0719642,18.9481782 18.981163,18.9655921 C18.8704602,18.9842499 18.7610012,19.0016638 18.6502983,19.01659 C18.4724275,19.0402232 18.2945567,19.058881 18.1166858,19.067588 C18.0196653,19.0725634 17.9238887,19.0762949 17.8268683,19.0762949 C17.7012392,19.0762949 17.5756102,19.0738072 17.4512249,19.067588 C17.2347947,19.058881 17.0208521,19.0414671 16.8093973,19.01659 C16.6862559,19.0016638 16.5618707,18.9842499 16.4399732,18.9655921 C16.3429528,18.9481782 16.2471761,18.9320081 16.1526434,18.9133503 C16.071793,18.8971802 15.9921865,18.8797663 15.9125799,18.8611085 C15.8404365,18.8449385 15.7695369,18.8275245 15.6998812,18.8101106 C15.6352009,18.7939405 15.5717645,18.7765266 15.508328,18.7578688 C15.449867,18.7416987 15.3914059,18.7242848 15.3341887,18.7068709 C15.2794592,18.6907008 15.2259736,18.6732869 15.172488,18.6558729 C15.1227339,18.638459 15.0717359,18.6222889 15.0219819,18.6036312 C14.9747155,18.5874611 14.9274491,18.5700472 14.8814266,18.5526332 C14.8366479,18.5352193 14.7918692,18.5178054 14.7470905,18.5003914 C14.7047996,18.4829775 14.6625086,18.4668074 14.6202176,18.4493935 C14.5791705,18.4319796 14.5381234,18.4145656 14.4983201,18.3983956 C14.4597607,18.3797378 14.4212013,18.3635677 14.3838857,18.3461538 C14.3465702,18.3287398 14.3092546,18.3113259 14.2731829,18.2951558 C14.2371112,18.2764981 14.2022833,18.260328 14.1662116,18.2429141 C14.1326276,18.2255001 14.0977998,18.2080862 14.0642158,18.1906723 C14.0318756,18.1745022 13.9982916,18.1570883 13.9659514,18.1396743 C13.9348551,18.1222604 13.902515,18.1060903 13.8701748,18.0874325 C13.8403224,18.0712625 13.8092261,18.0538485 13.7793736,18.0364346 C13.7495212,18.0190207 13.7196687,18.0028506 13.6898163,17.9841928 C13.6612077,17.9680227 13.6313552,17.9506088 13.6027466,17.9331949 C13.5753819,17.915781 13.5480171,17.898367 13.5206524,17.882197 C13.4932877,17.864783 13.4659229,17.8473691 13.4385582,17.8299552 C13.4124373,17.8125412 13.3863164,17.7951273 13.3601955,17.7789572 C13.3340746,17.7615433 13.3091976,17.7441294 13.2830767,17.7267154 C13.2581996,17.7093015 13.2333226,17.6931314 13.2084455,17.6757175 C13.1848123,17.6583036 13.1599353,17.6408897 13.1363021,17.6234757 C13.1126689,17.6060618 13.0890357,17.5898917 13.0654025,17.5724778 C13.0417694,17.5550639 13.01938,17.5376499 12.9969907,17.520236 C12.9746013,17.5028221 12.9509682,17.486652 12.9285788,17.4692381 C12.9074333,17.4518241 12.885044,17.4344102 12.8638985,17.4169963 C12.842753,17.3995824 12.8203637,17.3834123 12.7992182,17.3659983 C12.7780727,17.3485844 12.7581711,17.3311705 12.7382694,17.3150004 C12.717124,17.2975865 12.6959785,17.2801726 12.6760768,17.2627586 C12.6561752,17.2453447 12.6375174,17.2279308 12.6176158,17.2117607 C12.5977142,17.1943468 12.5778125,17.1769328 12.5591548,17.1595189 C12.5392531,17.142105 12.5205953,17.124691 12.5019376,17.108521 C12.4832798,17.091107 12.464622,17.0736931 12.4459642,17.0562792 C12.4285503,17.0388653 12.4111364,17.0214513 12.3924786,17.0052812 C12.3750646,16.9878673 12.3564069,16.9704534 12.3389929,16.9530395 C12.321579,16.9356255 12.3041651,16.9194555 12.287995,16.9020415 C12.2705811,16.8846276 12.2531671,16.8672137 12.2369971,16.8497997 C12.2195831,16.8323858 12.2034131,16.8162157 12.187243,16.7988018 C12.1710729,16.7813879 12.1549028,16.7639739 12.1387328,16.74656 C12.1225627,16.7291461 12.1063926,16.712976 12.0902225,16.6955621 C12.0752963,16.6781481 12.0603701,16.6607342 12.0442,16.6445641 C12.0292738,16.6259064 12.0131037,16.6097363 11.9981775,16.5923224 C11.9832512,16.5749084 11.9695689,16.5574945 11.9546426,16.5413244 C11.9397164,16.5226666 11.9247902,16.5064966 11.9111078,16.4890826 C11.8961816,16.4716687 11.8824992,16.4542548 11.8688169,16.4380847 C11.8538906,16.4206708 11.8402083,16.4032568 11.8265259,16.3858429 C11.8128435,16.368429 11.7991611,16.3510151 11.7854788,16.334845 C11.7717964,16.317431 11.7593579,16.3000171 11.7456755,16.2826032 C11.733237,16.2651893 11.7195546,16.2490192 11.7071161,16.2316053 C11.6934337,16.2141913 11.6809952,16.1967774 11.6685567,16.1793635 C11.6561181,16.1619495 11.6436796,16.1457795 11.6312411,16.1283655 C11.6188026,16.1109516 11.6063641,16.0935377 11.5951694,16.0761237 C11.5827309,16.0587098 11.5715362,16.0425397 11.5590977,16.0251258 C11.5466592,16.0077119 11.5354645,15.990298 11.5242698,15.972884 C11.5118313,15.9554701 11.5006366,15.9380562 11.489442,15.9218861 C11.4782473,15.9044722 11.4670526,15.8870582 11.455858,15.8696443 C11.4459071,15.8522304 11.4347125,15.8360603 11.4235178,15.8186464 C11.4123231,15.8012324 11.4023723,15.7838185 11.3911777,15.7676484 C11.3812268,15.7489907 11.3700322,15.7328206 11.3600814,15.7154066 C11.3501305,15.6979927 11.3401797,15.6805788 11.3302289,15.6644087 C11.3202781,15.6457509 11.3103273,15.6295809 11.3003765,15.6121669 C11.2904256,15.594753 11.2804748,15.5785829 11.270524,15.561169 C11.2605732,15.5437551 11.2518662,15.5263411 11.2431593,15.5089272 C11.2332084,15.4915133 11.2232576,15.4753432 11.2145507,15.4579293 C11.2058437,15.4405153 11.1958929,15.4231014 11.1871859,15.4056875 C11.178479,15.3882736 11.169772,15.3721035 11.161065,15.3546895 C11.1523581,15.3372756 11.1436511,15.3198617 11.1349441,15.3024478 C11.1262372,15.2850338 11.1187741,15.2688638 11.1100671,15.2514498 C11.102604,15.2340359 11.093897,15.216622 11.0864339,15.199208 C11.0777269,15.1817941 11.0702638,15.165624 11.0615569,15.1482101 C11.0540937,15.1307962 11.0466306,15.1133822 11.0391675,15.0959683 C11.0317044,15.0797982 11.0242413,15.0623843 11.0167782,15.0449704 C11.0093151,15.0275565 11.001852,15.0113864 10.9943888,14.9927286 C10.9869257,14.9753147 10.9794626,14.9591446 10.9732434,14.9417307 C10.9657802,14.9243167 10.9583171,14.9081467 10.9520979,14.8907327 C10.9446348,14.8720749 10.9384155,14.8559049 10.9321962,14.8384909 C10.9247331,14.821077 10.9185139,14.8049069 10.9122946,14.787493 C10.9060753,14.7700791 10.8986122,14.7526651 10.8936368,14.7352512 C10.8861737,14.7178373 10.8811983,14.7016672 10.874979,14.6842533 C10.8687598,14.6668393 10.8625405,14.6494254 10.8575651,14.6320115 C10.8513459,14.6145976 10.8451266,14.5971836 10.8389073,14.5810136 C10.8339319,14.5635996 10.8289565,14.5461857 10.8227373,14.5287718 C10.8177619,14.5113578 10.8115426,14.4939439 10.8065672,14.4777738 C10.8015918,14.4603599 10.7953725,14.442946 10.7903971,14.425532 C10.7854217,14.409362 10.7816901,14.391948 10.7767147,14.3745341 C10.7717393,14.3571202 10.7667639,14.3397063 10.7617885,14.3222923 C10.7568131,14.3048784 10.7518377,14.2887083 10.7468623,14.2712944 C10.7431307,14.2538805 10.7381553,14.2364665 10.7344238,14.2190526 C10.7294484,14.2016387 10.7257168,14.1854686 10.7207414,14.1680547 C10.7170098,14.1506407 10.7132783,14.1344707 10.7083029,14.1158129 C10.7045713,14.0996428 10.7008398,14.0822289 10.6971082,14.0648149 C10.6933766,14.047401 10.6896451,14.0312309 10.6859135,14.013817 C10.682182,13.9964031 10.6784504,13.9789892 10.6747189,13.9615752 C10.6709873,13.9441613 10.6684996,13.9267474 10.664768,13.9105773 C10.6622803,13.8931634 10.6585488,13.8757494 10.6548172,13.8583355 C10.6523295,13.8409216 10.648598,13.8247515 10.6461103,13.8073376 C10.6423787,13.7899236 10.639891,13.7725097 10.6374033,13.7550958 C10.6349156,13.7389257 10.631184,13.7215118 10.6286963,13.7040978 C10.6262086,13.6866839 10.6237209,13.66927 10.6212332,13.6518561 C10.6187455,13.6344421 10.6162578,13.6182721 10.6137701,13.6008581 C10.6125263,13.5834442 10.6100386,13.5660303 10.6075509,13.5486163 C10.6050631,13.5312024 10.6025754,13.5150323 10.6013316,13.4976184 C10.5988439,13.4802045 10.5976,13.4627905 10.5963562,13.4453766 C10.5938685,13.4279627 10.5926246,13.4117926 10.5901369,13.3943787 C10.5888931,13.3769648 10.5876492,13.3607947 10.5851615,13.3421369 C10.5839177,13.3259668 10.5826738,13.3085529 10.58143,13.291139 C10.5801861,13.273725 10.5789423,13.2563111 10.5776984,13.2388972 C10.5764545,13.2227271 10.5764545,13.2053132 10.5752107,13.1878992 C10.5739668,13.1717292 10.572723,13.1543152 10.572723,13.1369013 L10.5702353,13.0846595 C10.5689914,13.0684894 10.5689914,13.0510755 10.5677476,13.0336616 L10.5677476,12.9814198 L10.5665037,12.9304219 L10.5665037,12.8806678 L10.5665037,12.8781801 L10.5665037,12.8271821 C10.5665037,12.8097682 10.5665037,12.7923543 10.5677476,12.7749403 L10.5677476,12.7239424 C10.5689914,12.7065285 10.5702353,12.6891146 10.5702353,12.6717006 C10.5714791,12.6542867 10.5714791,12.6381166 10.572723,12.6207027 C10.5739668,12.6032888 10.5739668,12.5858748 10.5752107,12.5684609 C10.5764545,12.5522908 10.5776984,12.5348769 10.5789423,12.517463 C10.5801861,12.500049 10.58143,12.4826351 10.5826738,12.4652212 C10.5839177,12.4490511 10.5851615,12.4316372 10.5864054,12.4142232 C10.5876492,12.3968093 10.5888931,12.3806392 10.5913808,12.3619815 C10.5926246,12.3445675 10.5951123,12.3283975 10.5963562,12.3109835 C10.5988439,12.2935696 10.6000877,12.2773995 10.6013316,12.2599856 C10.6038193,12.2425717 10.606307,12.2251577 10.6075509,12.2077438 C10.6100386,12.1903299 10.6125263,12.1741598 10.615014,12.1567459 C10.6175017,12.1393319 10.6187455,12.121918 10.6212332,12.1045041 C10.6237209,12.0870902 10.6274525,12.0709201 10.6299402,12.0535061 C10.6324279,12.0360922 10.6349156,12.0186783 10.6386472,12.0012644 C10.6411349,11.9850943 10.6436226,11.9676804 10.6461103,11.9502664 C10.6498418,11.9328525 10.6523295,11.9154386 10.6560611,11.8980246 C10.6585488,11.8818546 10.6622803,11.8644406 10.6660119,11.8470267 C10.6697435,11.8296128 10.6722312,11.8121988 10.6759627,11.7947849 C10.6796943,11.7786148 10.6834258,11.7612009 10.6871574,11.743787 C10.6908889,11.7263731 10.6946205,11.7089591 10.6983521,11.6915452 C10.7020836,11.6753751 10.7058152,11.6579612 10.7095467,11.6405473 C10.7132783,11.6231333 10.7182537,11.6069633 10.7232291,11.5895493 C10.7269606,11.5721354 10.7306922,11.5547215 10.7356676,11.5373075 C10.740643,11.5198936 10.7443746,11.5037235 10.7481061,11.4850658 C10.7530815,11.4688957 10.758057,11.4514817 10.7630324,11.4340678 C10.7680078,11.4178977 10.7729832,11.4004838 10.7779586,11.3830699 C10.782934,11.365656 10.7879094,11.348242 10.7928848,11.3308281 C10.7978602,11.314658 10.8028356,11.2972441 10.8090549,11.2798302 C10.8140303,11.2624162 10.8190057,11.2450023 10.825225,11.2275884 C10.8302004,11.2114183 10.8351758,11.1940044 10.841395,11.1765904 C10.8463704,11.1591765 10.8525897,11.1417626 10.858809,11.1243486 C10.8650282,11.1081786 10.8712475,11.0907646 10.8762229,11.0733507 C10.8824422,11.0559368 10.8886614,11.0385229 10.8948807,11.0211089 C10.9010999,11.0049389 10.9085631,10.9875249 10.9147823,10.970111 C10.9210016,10.9526971 10.9272208,10.9352831 10.9334401,10.9178692 C10.9409032,10.9016991 10.9471225,10.8842852 10.9545856,10.8668713 C10.9608048,10.8494573 10.968268,10.8320434 10.9757311,10.8146295 C10.9819503,10.7984594 10.9894134,10.7810455 10.9968765,10.7636315 C11.0030958,10.7462176 11.0118028,10.7300475 11.0192659,10.7113898 C11.026729,10.6952197 11.0341921,10.6778058 11.0416552,10.6603918 C11.0491183,10.6442217 11.0565814,10.6268078 11.0640446,10.60815 C11.0727515,10.59198 11.0802146,10.574566 11.0889216,10.5571521 C11.0963847,10.540982 11.1050917,10.5235681 11.1137986,10.5061542 C11.1212618,10.4887402 11.1299687,10.4713263 11.1386757,10.4539124 C11.1473826,10.4377423 11.1560896,10.4203284 11.1647966,10.4029144 C11.1735035,10.3855005 11.1822105,10.3680866 11.1909175,10.3506727 C11.1996244,10.3332587 11.2083314,10.3170887 11.2182822,10.2996747 C11.2269892,10.2822608 11.23694,10.2648469 11.245647,10.2486768 C11.2555978,10.2312629 11.2643047,10.2138489 11.2742556,10.196435 C11.2842064,10.1790211 11.2941572,10.1616071 11.304108,10.1441932 C11.312815,10.1280231 11.3227658,10.1106092 11.3327166,10.0931953 C11.3439113,10.0757814 11.3538621,10.0583674 11.3638129,10.0409535 C11.3737637,10.0247834 11.3849584,10.0073695 11.3949092,9.98995556 C11.4061039,9.97378548 11.4160547,9.9551277 11.4272494,9.93771377 C11.438444,9.9215437 11.4496387,9.90412977 11.4595895,9.88671584 C11.4707842,9.87054576 11.4819789,9.85313183 11.4931735,9.8357179 C11.505612,9.81830397 11.5168067,9.80089005 11.5280014,9.78347612 C11.5391961,9.76730604 11.5516346,9.74989211 11.5628292,9.73247818 C11.5752678,9.71506425 11.5864624,9.69765032 11.598901,9.68023639 C11.6113395,9.66282247 11.623778,9.64665239 11.6362165,9.62923846 C11.648655,9.61182453 11.6610936,9.5944106 11.6735321,9.57824052 C11.6859706,9.5608266 11.6984091,9.54341267 11.7108476,9.52599874 C11.72453,9.50858481 11.7369685,9.49117088 11.7506509,9.47375695 C11.7643333,9.45758687 11.7767718,9.44017294 11.7904542,9.42275902 C11.8041365,9.40534509 11.8178189,9.38793116 11.8315013,9.37051723 C11.8451837,9.35434715 11.858866,9.33693322 11.8737923,9.31951929 C11.8874746,9.30210536 11.901157,9.28469144 11.9160832,9.26852136 C11.9297656,9.25110743 11.9446918,9.2336935 11.9596181,9.21627957 C11.9745443,9.20010949 11.9894705,9.18145171 12.0043967,9.16528164 C12.019323,9.14786771 12.0342492,9.13045378 12.0504193,9.11303985 C12.0653455,9.09686977 12.0802717,9.07821199 12.0964418,9.06204191 C12.111368,9.04462799 12.1275381,9.02721406 12.1437082,9.00980013 C12.1598782,8.9923862 12.1760483,8.97621612 12.1922184,8.95880219 C12.2083885,8.94138826 12.2258024,8.92397433 12.2419725,8.90656041 C12.2593864,8.88914648 12.2755565,8.8729764 12.2929704,8.85556247 C12.3103843,8.83814854 12.3277983,8.82073461 12.3452122,8.80332068 C12.3626261,8.78715061 12.3800401,8.76973668 12.3986978,8.75232275 C12.4161118,8.73490882 12.4347695,8.71749489 12.4521835,8.70008096 L12.4521835,8.70008096 Z" id="Fill-11" sketch:type="MSShapeGroup"></path>
            </g>
        </g>
    </g>
</svg>