<svg xmlns="http://www.w3.org/2000/svg" xmlns:xlink="http://www.w3.org/1999/xlink" width="22" height="22" viewBox="0 0 22 22">
    <defs>
        <path id="a" d="M0 .064h7.694v12.464H0z"/>
    </defs>
    <g fill="none" fill-rule="evenodd">
        <path d="M0 0h22v22H0z"/>
        <g transform="translate(9.754 4.59)">
            <mask id="b" fill="#fff">
                <use xlink:href="#a"/>
            </mask>
            <path fill="#6a6a6a" d="M7.519.161a.458.458 0 0 0-.644.08l-6.772 8.7a.461.461 0 0 0-.093.224.497.497 0 0 0-.01.094v2.81c0 .253.206.46.459.46a.46.46 0 0 0 .458-.46V9.39L7.597.808c.155-.2.12-.491-.078-.647" mask="url(#b)"/>
        </g>
        <path fill="#6a6a6a" d="M17.063 4.075a.923.923 0 0 0-.613.231L5.525 10.574a.937.937 0 0 0-.037 1.661l2.114 1.106a.466.466 0 0 0 .393-.846l-1.675-.899a.238.238 0 0 1-.117-.204c0-.087.048-.163.117-.202l10.315-5.907a.233.233 0 0 1 .337.267l-1.896 9.86a.233.233 0 0 1-.329.177L12.4 14.476a.466.466 0 1 0-.37.845l2.62 1.233c.122.05.25.079.386.079a.928.928 0 0 0 .915-.781l1.982-10.369c-.001.001.063-.34.058-.476a.931.931 0 0 0-.928-.932z"/>
    </g>
</svg>
